<svg width="134" height="30" viewBox="0 0 134 30" fill="none" xmlns="http://www.w3.org/2000/svg">
<g clip-path="url(#clip0_1_2780)">
<path d="M23.7586 16.2116V20.1713C23.7586 20.2169 23.7577 20.2626 23.755 20.3082C23.7541 20.3172 23.7541 20.327 23.7532 20.3359C23.7515 20.3628 23.7497 20.3896 23.747 20.4174C23.7443 20.4442 23.7416 20.4711 23.738 20.4979C23.7353 20.5239 23.7309 20.5498 23.7273 20.5749C23.721 20.6134 23.7148 20.6509 23.7067 20.6894C23.7022 20.7136 23.6969 20.7368 23.6915 20.761C23.6861 20.7816 23.6808 20.8031 23.6754 20.8245C23.6709 20.8442 23.6656 20.863 23.6593 20.8827C23.6351 20.9695 23.6056 21.0554 23.5716 21.1395C23.5644 21.1574 23.5573 21.1762 23.5492 21.1941C23.5286 21.2433 23.5063 21.2917 23.4821 21.3391C23.4705 21.3632 23.4579 21.3865 23.4454 21.4098L23.4445 21.4089L18.9649 18.9158L11.9492 15.0107L17.2253 12.582L23.6638 16.1597L23.7586 16.2116Z" fill="url(#paint0_linear_1_2780)"/>
<path d="M23.6793 8.82183L22.3137 9.87418L21.1048 11.7749L9.61035 5.37664L13.9781 2.30908L16.618 3.83391H16.6189L21.4564 6.62676L22.4578 7.20483C23.0743 7.56098 23.5092 8.14801 23.6793 8.82183Z" fill="url(#paint1_linear_1_2780)"/>
<path d="M16.6183 3.834L0 13.3544V9.45817C0 8.52841 0.495749 7.66935 1.30022 7.20492L10.579 1.84832C11.3834 1.38389 12.3749 1.38389 13.1803 1.84832L16.6183 3.834Z" fill="#21E786"/>
<path d="M23.7584 9.83132V11.1834L2.29172 23.3705L1.30022 22.7978C0.495749 22.3324 0 21.4743 0 20.5445V19.1951L21.4568 7L22.4582 7.57808C23.2626 8.04251 23.7584 8.90157 23.7584 9.83132Z" fill="#21E786"/>
<path d="M23.7583 16.104V20.1711C23.7583 20.2168 23.7574 20.2624 23.7547 20.308C23.7538 20.317 23.7538 20.3268 23.7529 20.3358C23.7511 20.3626 23.7493 20.3895 23.7466 20.4172C23.7439 20.444 23.7413 20.4709 23.7377 20.4977C23.735 20.5237 23.7305 20.5496 23.7269 20.5747C23.7207 20.6132 23.7144 20.6508 23.7064 20.6892C23.7019 20.7134 23.6965 20.7367 23.6911 20.7608C23.6858 20.7814 23.6804 20.8029 23.675 20.8244C23.6706 20.844 23.6652 20.8628 23.6589 20.8825C23.6348 20.9693 23.6052 21.0552 23.5712 21.1394C23.5641 21.1572 23.5569 21.176 23.5489 21.1939C23.5283 21.2432 23.5059 21.2915 23.4817 21.3389C23.4701 21.3631 23.4576 21.3863 23.4451 21.4096C23.4307 21.4355 23.4164 21.4615 23.4012 21.4866C23.3869 21.5125 23.3708 21.5376 23.3556 21.5626C23.3234 21.6118 23.2902 21.6611 23.2553 21.7085C23.2196 21.7568 23.1829 21.8033 23.1453 21.8481C23.1256 21.8713 23.1059 21.8937 23.0862 21.9152C23.0665 21.9376 23.0459 21.959 23.0254 21.9805C22.9842 22.0235 22.9413 22.0655 22.8965 22.1049C22.8795 22.121 22.8616 22.1362 22.8437 22.1514C22.833 22.1604 22.8222 22.1693 22.8115 22.1783C22.79 22.1971 22.7676 22.215 22.7444 22.232C22.722 22.2499 22.6996 22.2669 22.6755 22.283C22.6307 22.3161 22.5842 22.3474 22.5368 22.3769C22.5108 22.393 22.4849 22.4091 22.458 22.4244L13.1802 27.781C12.3748 28.2454 11.3833 28.2454 10.5788 27.781L7.18555 25.8221L18.9645 18.9156L23.6634 16.1595L23.7583 16.104Z" fill="#21E786"/>
<path d="M5 5V25L2.45589 23.5658L1.39336 22.9663C0.531262 22.4792 0 21.5808 0 20.6075V9.39251C0 8.4192 0.531262 7.51991 1.39336 7.03372L5 5Z" fill="#21E786"/>
</g>
<path d="M53.112 19.238C53.112 20.4113 52.7453 21.2987 52.012 21.9C51.2933 22.5013 50.0173 22.802 48.184 22.802H41.32V8.876H42.178H47.964C49.1813 8.876 50.1273 9.008 50.802 9.272C51.4913 9.52133 51.9753 9.89533 52.254 10.394C52.5327 10.8927 52.672 11.516 52.672 12.264C52.672 13.2907 52.4227 14.09 51.924 14.662C51.44 15.2193 50.5233 15.5567 49.174 15.674V15.74C50.1713 15.8133 50.956 15.982 51.528 16.246C52.1 16.4953 52.5033 16.862 52.738 17.346C52.9873 17.83 53.112 18.4607 53.112 19.238ZM46.996 11.648H44.84V14.376H46.996C47.7147 14.376 48.2353 14.288 48.558 14.112C48.8807 13.9213 49.042 13.5547 49.042 13.012C49.042 12.484 48.8807 12.1247 48.558 11.934C48.2353 11.7433 47.7147 11.648 46.996 11.648ZM47.436 17.258H44.84V20.052H47.436C48.1547 20.052 48.6753 19.9567 48.998 19.766C49.3207 19.5607 49.482 19.1867 49.482 18.644C49.482 18.0867 49.3207 17.72 48.998 17.544C48.6753 17.3533 48.1547 17.258 47.436 17.258ZM58.6115 22.802H55.0915V8.876H58.6115V22.802ZM70.2775 8.876H73.7975V22.802H70.2995L66.3395 16.906C66.0315 16.4367 65.7748 16.0407 65.5695 15.718C65.3642 15.3953 65.1735 15.0727 64.9975 14.75C64.8215 14.4273 64.6235 14.046 64.4035 13.606L64.3375 13.694C64.5428 14.398 64.6675 15.058 64.7115 15.674C64.7555 16.2753 64.7775 16.862 64.7775 17.434V22.802H61.2575V8.876H64.7555L68.7155 14.772C69.0235 15.2267 69.2802 15.6227 69.4855 15.96C69.6908 16.2827 69.8815 16.6053 70.0575 16.928C70.2335 17.2507 70.4315 17.632 70.6515 18.072L70.7175 17.984C70.5708 17.368 70.4608 16.774 70.3875 16.202C70.3142 15.6153 70.2775 15.036 70.2775 14.464V8.876ZM89.207 22.736V22.802H85.467C85.3643 22.45 85.2396 22.0467 85.093 21.592C84.961 21.1373 84.8143 20.6533 84.653 20.14H79.901C79.6076 21.1667 79.3363 22.054 79.087 22.802H75.347V22.758L79.857 8.876H84.697L89.207 22.736ZM82.233 11.384C82.0863 12.132 81.8736 13.0413 81.595 14.112C81.3163 15.1827 81.023 16.2753 80.715 17.39H83.861C83.5383 16.2753 83.2376 15.1827 82.959 14.112C82.6803 13.0413 82.4676 12.132 82.321 11.384H82.233ZM102.548 19.238C102.548 20.4113 102.181 21.2987 101.448 21.9C100.729 22.5013 99.4529 22.802 97.6195 22.802H90.7555V8.876H91.6135H97.3995C98.6169 8.876 99.5629 9.008 100.238 9.272C100.927 9.52133 101.411 9.89533 101.69 10.394C101.968 10.8927 102.108 11.516 102.108 12.264C102.108 13.2907 101.858 14.09 101.36 14.662C100.876 15.2193 99.9589 15.5567 98.6095 15.674V15.74C99.6069 15.8133 100.392 15.982 100.964 16.246C101.536 16.4953 101.939 16.862 102.174 17.346C102.423 17.83 102.548 18.4607 102.548 19.238ZM96.4315 11.648H94.2755V14.376H96.4315C97.1502 14.376 97.6709 14.288 97.9935 14.112C98.3162 13.9213 98.4775 13.5547 98.4775 13.012C98.4775 12.484 98.3162 12.1247 97.9935 11.934C97.6709 11.7433 97.1502 11.648 96.4315 11.648ZM96.8715 17.258H94.2755V20.052H96.8715C97.5902 20.052 98.1109 19.9567 98.4335 19.766C98.7562 19.5607 98.9175 19.1867 98.9175 18.644C98.9175 18.0867 98.7562 17.72 98.4335 17.544C98.1109 17.3533 97.5902 17.258 96.8715 17.258ZM104.087 15.828C104.087 14.0533 104.285 12.6453 104.681 11.604C105.092 10.5627 105.788 9.81467 106.771 9.36C107.768 8.90533 109.154 8.678 110.929 8.678C112.264 8.678 113.371 8.80267 114.251 9.052C115.131 9.30133 115.828 9.70467 116.341 10.262C116.854 10.8193 117.214 11.56 117.419 12.484C117.639 13.3933 117.749 14.508 117.749 15.828C117.749 17.1627 117.639 18.292 117.419 19.216C117.214 20.1253 116.854 20.8587 116.341 21.416C115.828 21.9733 115.131 22.3767 114.251 22.626C113.371 22.8753 112.264 23 110.929 23C109.594 23 108.487 22.8753 107.607 22.626C106.727 22.3767 106.03 21.9733 105.517 21.416C105.004 20.8587 104.637 20.1253 104.417 19.216C104.197 18.292 104.087 17.1627 104.087 15.828ZM110.929 19.92C111.868 19.92 112.572 19.8027 113.041 19.568C113.51 19.3333 113.826 18.9227 113.987 18.336C114.148 17.7347 114.229 16.8987 114.229 15.828C114.229 14.772 114.148 13.9507 113.987 13.364C113.826 12.7773 113.51 12.3667 113.041 12.132C112.572 11.8827 111.868 11.758 110.929 11.758C110.005 11.758 109.301 11.8827 108.817 12.132C108.348 12.3667 108.025 12.7773 107.849 13.364C107.688 13.9507 107.607 14.772 107.607 15.828C107.607 16.8987 107.688 17.7347 107.849 18.336C108.025 18.9227 108.348 19.3333 108.817 19.568C109.301 19.8027 110.005 19.92 110.929 19.92ZM128.929 15.696L132.999 22.802H128.599L126.069 17.874H126.003L123.473 22.802H119.073L123.143 15.696V15.586L119.337 8.876H123.671L126.003 13.716H126.069L128.401 8.876H132.735L128.929 15.586V15.696Z" fill="white"/>
<defs>
<linearGradient id="paint0_linear_1_2780" x1="23.0427" y1="19.1288" x2="13.5125" y2="12.5963" gradientUnits="userSpaceOnUse">
<stop stop-color="#00FFA3"/>
<stop offset="1" stop-color="#00FFA3" stop-opacity="0"/>
</linearGradient>
<linearGradient id="paint1_linear_1_2780" x1="21.4761" y1="10.0907" x2="12.8408" y2="4.49789" gradientUnits="userSpaceOnUse">
<stop stop-color="#00FFA3"/>
<stop offset="1" stop-color="#00FFA3" stop-opacity="0"/>
</linearGradient>
<clipPath id="clip0_1_2780">
<rect width="24" height="27" fill="white" transform="translate(0 1.5)"/>
</clipPath>
</defs>
</svg>
