<svg width="122" height="135" viewBox="0 0 122 135" fill="none" xmlns="http://www.w3.org/2000/svg">
<path d="M120.277 74.478V94.5242C120.277 94.7552 120.272 94.9862 120.259 95.2173C120.254 95.2626 120.254 95.3124 120.25 95.3577C120.241 95.4936 120.231 95.6295 120.218 95.77C120.204 95.9059 120.191 96.0418 120.173 96.1777C120.159 96.3091 120.136 96.4404 120.118 96.5673C120.086 96.7621 120.055 96.9523 120.014 97.1471C119.991 97.2695 119.964 97.3872 119.937 97.5096C119.91 97.6138 119.883 97.7225 119.855 97.8312C119.833 97.9309 119.806 98.026 119.774 98.1257C119.652 98.5651 119.502 99 119.33 99.4258C119.294 99.5164 119.257 99.6116 119.217 99.7022C119.113 99.9513 118.999 100.196 118.877 100.436C118.818 100.558 118.755 100.676 118.691 100.794L118.687 100.789L96.0085 88.1683L60.4917 68.3985L87.2018 56.1035L119.797 74.2153L120.277 74.478Z" fill="url(#paint0_linear_1_2771)"/>
<path d="M119.879 37.0665L112.966 42.394L106.845 52.0162L48.6548 19.6252L70.7667 4.0957L84.1308 11.8152H84.1353L108.626 25.9539L113.695 28.8804C116.816 30.6835 119.018 33.6553 119.879 37.0665Z" fill="url(#paint1_linear_1_2771)"/>
<path d="M84.1304 11.8159L0 60.0127V40.2882C0 35.5813 2.50973 31.2323 6.58238 28.8812L53.556 1.76338C57.6287 -0.587794 62.6482 -0.587794 66.7253 1.76338L84.1304 11.8159Z" fill="#21E786"/>
<path d="M120.277 40.2877V47.1328L11.6018 108.83L6.58238 105.93C2.50973 103.575 0 99.2301 0 94.5232V87.6917L108.625 25.9541L113.694 28.8806C117.767 31.2318 120.277 35.5808 120.277 40.2877Z" fill="#21E786"/>
<path d="M120.277 73.9338V94.5236C120.277 94.7546 120.272 94.9857 120.259 95.2167C120.254 95.262 120.254 95.3119 120.25 95.3572C120.241 95.4931 120.231 95.629 120.218 95.7694C120.204 95.9053 120.191 96.0412 120.173 96.1771C120.159 96.3085 120.136 96.4399 120.118 96.5667C120.086 96.7615 120.055 96.9518 120.014 97.1466C119.991 97.2689 119.964 97.3867 119.937 97.509C119.91 97.6132 119.883 97.7219 119.855 97.8307C119.833 97.9303 119.806 98.0255 119.774 98.1251C119.652 98.5645 119.502 98.9994 119.33 99.4253C119.294 99.5159 119.257 99.611 119.217 99.7016C119.113 99.9508 118.999 100.195 118.877 100.436C118.818 100.558 118.755 100.676 118.691 100.793C118.619 100.925 118.546 101.056 118.469 101.183C118.397 101.314 118.315 101.441 118.238 101.568C118.075 101.817 117.907 102.066 117.731 102.306C117.55 102.551 117.364 102.787 117.174 103.013C117.074 103.131 116.974 103.244 116.875 103.353C116.775 103.466 116.671 103.575 116.567 103.684C116.358 103.901 116.141 104.114 115.914 104.313C115.828 104.395 115.738 104.472 115.647 104.549C115.593 104.594 115.538 104.64 115.484 104.685C115.375 104.78 115.262 104.871 115.144 104.957C115.031 105.047 114.918 105.133 114.795 105.215C114.569 105.382 114.333 105.541 114.093 105.691C113.962 105.772 113.83 105.854 113.694 105.931L66.7253 133.048C62.6481 135.4 57.6286 135.4 53.556 133.048L36.3774 123.132L96.0085 88.1677L119.797 74.2147L120.277 73.9338Z" fill="#21E786"/>
<path d="M23.6205 19.0459V115.766L11.6018 108.83L6.58238 105.931C2.50973 103.575 0 99.2305 0 94.5236V40.288C0 35.5811 2.50973 31.2321 6.58238 28.881L23.6205 19.0459Z" fill="#21E786"/>
<defs>
<linearGradient id="paint0_linear_1_2771" x1="116.653" y1="89.2464" x2="68.4059" y2="56.176" gradientUnits="userSpaceOnUse">
<stop stop-color="#00FFA3"/>
<stop offset="1" stop-color="#00FFA3" stop-opacity="0"/>
</linearGradient>
<linearGradient id="paint1_linear_1_2771" x1="108.725" y1="43.4903" x2="65.0089" y2="15.1765" gradientUnits="userSpaceOnUse">
<stop stop-color="#00FFA3"/>
<stop offset="1" stop-color="#00FFA3" stop-opacity="0"/>
</linearGradient>
</defs>
</svg>
