<svg width="24" height="24" viewBox="0 0 24 24" fill="none" xmlns="http://www.w3.org/2000/svg">
<g clip-path="url(#clip0_1_7951)">
<path d="M23.7596 13.2116V17.1713C23.7596 17.217 23.7587 17.2626 23.756 17.3083C23.7551 17.3172 23.7551 17.3271 23.7542 17.336C23.7524 17.3628 23.7506 17.3897 23.748 17.4174C23.7453 17.4443 23.7426 17.4711 23.739 17.498C23.7363 17.5239 23.7318 17.5499 23.7283 17.5749C23.722 17.6134 23.7157 17.651 23.7077 17.6895C23.7032 17.7136 23.6978 17.7369 23.6925 17.7611C23.6871 17.7816 23.6817 17.8031 23.6764 17.8246C23.6719 17.8443 23.6665 17.8631 23.6603 17.8828C23.6361 17.9696 23.6066 18.0555 23.5726 18.1396C23.5654 18.1575 23.5582 18.1763 23.5502 18.1942C23.5296 18.2434 23.5072 18.2917 23.4831 18.3391C23.4714 18.3633 23.4589 18.3866 23.4464 18.4098L23.4455 18.4089L18.9659 15.9159L11.9502 12.0107L17.2263 9.58208L23.6647 13.1597L23.7596 13.2116Z" fill="url(#paint0_linear_1_7951)"/>
<path d="M23.6783 5.82237L22.3127 6.87472L21.1038 8.77539L9.60938 2.37718L13.9772 -0.690376L16.617 0.834456H16.6179L21.4555 3.6273L22.4568 4.20537C23.0734 4.56152 23.5083 5.14855 23.6783 5.82237Z" fill="url(#paint1_linear_1_7951)"/>
<path d="M16.6183 0.834058L0 10.3544V6.45822C0 5.52847 0.495749 4.6694 1.30022 4.20498L10.579 -1.15162C11.3834 -1.61605 12.3749 -1.61605 13.1803 -1.15162L16.6183 0.834058Z" fill="#21E786"/>
<path d="M23.7584 6.45823V7.81036L2.29172 19.9974L1.30022 19.4247C0.495749 18.9594 0 18.1012 0 17.1714V15.822L21.4568 3.62691L22.4582 4.20499C23.2626 4.66942 23.7584 5.52848 23.7584 6.45823Z" fill="#21E786"/>
<path d="M23.7592 13.1045V17.1717C23.7592 17.2173 23.7583 17.2629 23.7556 17.3086C23.7548 17.3175 23.7548 17.3274 23.7539 17.3363C23.7521 17.3632 23.7503 17.39 23.7476 17.4177C23.7449 17.4446 23.7422 17.4714 23.7386 17.4983C23.736 17.5242 23.7315 17.5502 23.7279 17.5752C23.7216 17.6137 23.7154 17.6513 23.7073 17.6898C23.7029 17.7139 23.6975 17.7372 23.6921 17.7614C23.6867 17.782 23.6814 17.8034 23.676 17.8249C23.6715 17.8446 23.6662 17.8634 23.6599 17.8831C23.6357 17.9699 23.6062 18.0558 23.5722 18.1399C23.565 18.1578 23.5579 18.1766 23.5498 18.1945C23.5293 18.2437 23.5069 18.292 23.4827 18.3394C23.4711 18.3636 23.4586 18.3869 23.446 18.4101C23.4317 18.4361 23.4174 18.462 23.4022 18.4871C23.3879 18.513 23.3718 18.5381 23.3565 18.5632C23.3243 18.6124 23.2912 18.6616 23.2563 18.709C23.2205 18.7573 23.1838 18.8039 23.1463 18.8486C23.1266 18.8719 23.1069 18.8943 23.0872 18.9157C23.0675 18.9381 23.0469 18.9596 23.0263 18.9811C22.9852 19.024 22.9422 19.0661 22.8975 19.1054C22.8805 19.1215 22.8626 19.1368 22.8447 19.152C22.834 19.1609 22.8232 19.1699 22.8125 19.1788C22.791 19.1976 22.7686 19.2155 22.7454 19.2325C22.723 19.2504 22.7006 19.2674 22.6765 19.2835C22.6317 19.3166 22.5852 19.3479 22.5378 19.3775C22.5118 19.3936 22.4859 19.4097 22.459 19.4249L13.1812 24.7815C12.3758 25.2459 11.3843 25.2459 10.5798 24.7815L7.18652 22.8227L18.9655 15.9162L23.6644 13.16L23.7592 13.1045Z" fill="#21E786"/>
<path d="M4.66577 2.26225V21.3674L2.29172 19.9974L1.30022 19.4247C0.495749 18.9593 0 18.1012 0 17.1714V6.45823C0 5.52847 0.495749 4.66941 1.30022 4.20498L4.66577 2.26225Z" fill="#21E786"/>
</g>
<defs>
<linearGradient id="paint0_linear_1_7951" x1="23.0437" y1="16.1288" x2="13.5135" y2="9.59639" gradientUnits="userSpaceOnUse">
<stop stop-color="#00FFA3"/>
<stop offset="1" stop-color="#00FFA3" stop-opacity="0"/>
</linearGradient>
<linearGradient id="paint1_linear_1_7951" x1="21.4752" y1="7.09127" x2="12.8398" y2="1.49843" gradientUnits="userSpaceOnUse">
<stop stop-color="#00FFA3"/>
<stop offset="1" stop-color="#00FFA3" stop-opacity="0"/>
</linearGradient>
<clipPath id="clip0_1_7951">
<rect width="24" height="26.6667" fill="white" transform="translate(0 -1.49995)"/>
</clipPath>
</defs>
</svg>
