<svg width="423" height="96" viewBox="0 0 423 96" fill="none" xmlns="http://www.w3.org/2000/svg">
<g clip-path="url(#clip0_1_2760)">
<path d="M80.1848 52.653V66.0171C80.1848 66.1711 80.1818 66.3251 80.1727 66.4792C80.1697 66.5094 80.1697 66.5426 80.1667 66.5728C80.1607 66.6634 80.1546 66.754 80.1456 66.8476C80.1365 66.9382 80.1274 67.0288 80.1154 67.1194C80.1063 67.207 80.0912 67.2946 80.0791 67.3792C80.058 67.509 80.0368 67.6359 80.0097 67.7657C79.9946 67.8473 79.9764 67.9258 79.9583 68.0074C79.9402 68.0768 79.9221 68.1493 79.904 68.2218C79.8889 68.2882 79.8707 68.3516 79.8496 68.4181C79.7681 68.711 79.6684 69.001 79.5536 69.2849C79.5295 69.3453 79.5053 69.4087 79.4781 69.4691C79.4087 69.6352 79.3332 69.7983 79.2516 69.9584C79.2124 70.0399 79.1701 70.1184 79.1278 70.1969L79.1248 70.1939L64.006 61.7798L40.3281 48.6L58.1348 40.4033L79.8647 52.4778L80.1848 52.653Z" fill="url(#paint0_linear_1_2760)"/>
<path d="M79.9191 27.711L75.3103 31.2627L71.2302 37.6774L32.4365 16.0835L47.1778 5.73047L56.0872 10.8768H56.0902L72.4171 20.3026L75.7966 22.2536C77.8775 23.4556 79.3452 25.4368 79.9191 27.711Z" fill="url(#paint1_linear_1_2760)"/>
<path d="M56.0869 10.8773L0 43.0085V29.8588C0 26.7209 1.67315 23.8216 4.38826 22.2541L35.704 4.17559C38.4191 2.60814 41.7654 2.60814 44.4836 4.17559L56.0869 10.8773Z" fill="#21E786"/>
<path d="M80.1846 29.8584V34.4219L7.73456 75.5531L4.38825 73.6202C1.67315 72.0497 0 69.1534 0 66.0155V61.4611L72.4168 20.3027L75.7963 22.2537C78.5114 23.8212 80.1846 26.7205 80.1846 29.8584Z" fill="#21E786"/>
<path d="M80.1848 52.2893V66.0158C80.1848 66.1698 80.1818 66.3239 80.1728 66.4779C80.1697 66.5081 80.1697 66.5413 80.1667 66.5715C80.1607 66.6621 80.1546 66.7527 80.1456 66.8464C80.1365 66.937 80.1275 67.0276 80.1154 67.1182C80.1063 67.2058 80.0912 67.2933 80.0791 67.3779C80.058 67.5078 80.0369 67.6346 80.0097 67.7645C79.9946 67.846 79.9764 67.9245 79.9583 68.0061C79.9402 68.0755 79.9221 68.148 79.904 68.2205C79.8889 68.287 79.8708 68.3504 79.8496 68.4168C79.7681 68.7098 79.6684 68.9997 79.5536 69.2836C79.5295 69.344 79.5053 69.4074 79.4781 69.4678C79.4087 69.6339 79.3332 69.797 79.2516 69.9571C79.2124 70.0386 79.1701 70.1172 79.1278 70.1957C79.0795 70.2833 79.0312 70.3709 78.9798 70.4554C78.9315 70.543 78.8771 70.6276 78.8258 70.7121C78.7171 70.8782 78.6053 71.0443 78.4875 71.2044C78.3667 71.3675 78.2429 71.5245 78.116 71.6755C78.0496 71.7541 77.9832 71.8296 77.9167 71.9021C77.8503 71.9776 77.7808 72.05 77.7113 72.1225C77.5724 72.2675 77.4275 72.4094 77.2764 72.5423C77.2191 72.5967 77.1587 72.648 77.0983 72.6994C77.062 72.7296 77.0258 72.7598 76.9895 72.79C76.9171 72.8534 76.8415 72.9138 76.763 72.9712C76.6875 73.0316 76.612 73.089 76.5305 73.1433C76.3795 73.2551 76.2224 73.3608 76.0624 73.4604C75.9748 73.5148 75.8872 73.5692 75.7966 73.6205L44.4838 91.699C41.7657 93.2665 38.4194 93.2665 35.7043 91.699L24.252 85.088L64.006 61.7786L79.8647 52.4766L80.1848 52.2893Z" fill="#21E786"/>
<path d="M15.747 15.6973V80.1771L7.73456 75.5533L4.38825 73.6204C1.67315 72.05 0 69.1536 0 66.0157V29.8587C0 26.7208 1.67315 23.8214 4.38825 22.254L15.747 15.6973Z" fill="#21E786"/>
</g>
<path d="M159.912 60.438C159.912 64.278 158.712 67.182 156.312 69.15C153.96 71.118 149.784 72.102 143.784 72.102H121.32V26.526H124.128H143.064C147.048 26.526 150.144 26.958 152.352 27.822C154.608 28.638 156.192 29.862 157.104 31.494C158.016 33.126 158.472 35.166 158.472 37.614C158.472 40.974 157.656 43.59 156.024 45.462C154.44 47.286 151.44 48.39 147.024 48.774V48.99C150.288 49.23 152.856 49.782 154.728 50.646C156.6 51.462 157.92 52.662 158.688 54.246C159.504 55.83 159.912 57.894 159.912 60.438ZM139.896 35.598H132.84V44.526H139.896C142.248 44.526 143.952 44.238 145.008 43.662C146.064 43.038 146.592 41.838 146.592 40.062C146.592 38.334 146.064 37.158 145.008 36.534C143.952 35.91 142.248 35.598 139.896 35.598ZM141.336 53.958H132.84V63.102H141.336C143.688 63.102 145.392 62.79 146.448 62.166C147.504 61.494 148.032 60.27 148.032 58.494C148.032 56.67 147.504 55.47 146.448 54.894C145.392 54.27 143.688 53.958 141.336 53.958ZM177.91 72.102H166.39V26.526H177.91V72.102ZM216.09 26.526H227.61V72.102H216.162L203.202 52.806C202.194 51.27 201.354 49.974 200.682 48.918C200.01 47.862 199.386 46.806 198.81 45.75C198.234 44.694 197.586 43.446 196.866 42.006L196.65 42.294C197.322 44.598 197.73 46.758 197.874 48.774C198.018 50.742 198.09 52.662 198.09 54.534V72.102H186.57V26.526H198.018L210.978 45.822C211.986 47.31 212.826 48.606 213.498 49.71C214.17 50.766 214.794 51.822 215.37 52.878C215.946 53.934 216.594 55.182 217.314 56.622L217.53 56.334C217.05 54.318 216.69 52.374 216.45 50.502C216.21 48.582 216.09 46.686 216.09 44.814V26.526ZM278.041 71.886V72.102H265.801C265.465 70.95 265.057 69.63 264.577 68.142C264.145 66.654 263.665 65.07 263.137 63.39H247.585C246.625 66.75 245.737 69.654 244.921 72.102H232.681V71.958L247.441 26.526H263.281L278.041 71.886ZM255.217 34.734C254.737 37.182 254.041 40.158 253.129 43.662C252.217 47.166 251.257 50.742 250.249 54.39H260.545C259.489 50.742 258.505 47.166 257.593 43.662C256.681 40.158 255.985 37.182 255.505 34.734H255.217ZM321.701 60.438C321.701 64.278 320.501 67.182 318.101 69.15C315.749 71.118 311.573 72.102 305.573 72.102H283.109V26.526H285.917H304.853C308.837 26.526 311.933 26.958 314.141 27.822C316.397 28.638 317.981 29.862 318.893 31.494C319.805 33.126 320.261 35.166 320.261 37.614C320.261 40.974 319.445 43.59 317.813 45.462C316.229 47.286 313.229 48.39 308.813 48.774V48.99C312.077 49.23 314.645 49.782 316.517 50.646C318.389 51.462 319.709 52.662 320.477 54.246C321.293 55.83 321.701 57.894 321.701 60.438ZM301.685 35.598H294.629V44.526H301.685C304.037 44.526 305.741 44.238 306.797 43.662C307.853 43.038 308.381 41.838 308.381 40.062C308.381 38.334 307.853 37.158 306.797 36.534C305.741 35.91 304.037 35.598 301.685 35.598ZM303.125 53.958H294.629V63.102H303.125C305.477 63.102 307.181 62.79 308.237 62.166C309.293 61.494 309.821 60.27 309.821 58.494C309.821 56.67 309.293 55.47 308.237 54.894C307.181 54.27 305.477 53.958 303.125 53.958ZM326.739 49.278C326.739 43.47 327.387 38.862 328.683 35.454C330.027 32.046 332.307 29.598 335.523 28.11C338.787 26.622 343.323 25.878 349.131 25.878C353.499 25.878 357.123 26.286 360.003 27.102C362.883 27.918 365.163 29.238 366.843 31.062C368.523 32.886 369.699 35.31 370.371 38.334C371.091 41.31 371.451 44.958 371.451 49.278C371.451 53.646 371.091 57.342 370.371 60.366C369.699 63.342 368.523 65.742 366.843 67.566C365.163 69.39 362.883 70.71 360.003 71.526C357.123 72.342 353.499 72.75 349.131 72.75C344.763 72.75 341.139 72.342 338.259 71.526C335.379 70.71 333.099 69.39 331.419 67.566C329.739 65.742 328.539 63.342 327.819 60.366C327.099 57.342 326.739 53.646 326.739 49.278ZM349.131 62.67C352.203 62.67 354.507 62.286 356.043 61.518C357.579 60.75 358.611 59.406 359.139 57.486C359.667 55.518 359.931 52.782 359.931 49.278C359.931 45.822 359.667 43.134 359.139 41.214C358.611 39.294 357.579 37.95 356.043 37.182C354.507 36.366 352.203 35.958 349.131 35.958C346.107 35.958 343.803 36.366 342.219 37.182C340.683 37.95 339.627 39.294 339.051 41.214C338.523 43.134 338.259 45.822 338.259 49.278C338.259 52.782 338.523 55.518 339.051 57.486C339.627 59.406 340.683 60.75 342.219 61.518C343.803 62.286 346.107 62.67 349.131 62.67ZM408.04 48.846L421.36 72.102H406.96L398.68 55.974H398.464L390.184 72.102H375.784L389.104 48.846V48.486L376.648 26.526H390.832L398.464 42.366H398.68L406.312 26.526H420.496L408.04 48.486V48.846Z" fill="white"/>
<defs>
<linearGradient id="paint0_linear_1_2760" x1="77.7687" y1="62.4986" x2="45.6043" y2="40.4516" gradientUnits="userSpaceOnUse">
<stop stop-color="#00FFA3"/>
<stop offset="1" stop-color="#00FFA3" stop-opacity="0"/>
</linearGradient>
<linearGradient id="paint1_linear_1_2760" x1="72.4835" y1="31.9935" x2="43.3392" y2="13.1177" gradientUnits="userSpaceOnUse">
<stop stop-color="#00FFA3"/>
<stop offset="1" stop-color="#00FFA3" stop-opacity="0"/>
</linearGradient>
<clipPath id="clip0_1_2760">
<rect width="81" height="90" fill="white" transform="translate(0 3)"/>
</clipPath>
</defs>
</svg>
