<svg width="282" height="64" viewBox="0 0 282 64" fill="none" xmlns="http://www.w3.org/2000/svg">
<g clip-path="url(#clip0_1_2750)">
<path d="M53.4564 35.101V44.0104C53.4564 44.1131 53.4544 44.2158 53.4483 44.3185C53.4463 44.3386 53.4463 44.3607 53.4443 44.3809C53.4403 44.4413 53.4363 44.5017 53.4302 44.5641C53.4242 44.6245 53.4181 44.6849 53.4101 44.7453C53.404 44.8037 53.394 44.8621 53.3859 44.9185C53.3718 45.005 53.3577 45.0896 53.3396 45.1762C53.3295 45.2305 53.3175 45.2829 53.3054 45.3373C53.2933 45.3836 53.2812 45.4319 53.2691 45.4802C53.2591 45.5245 53.247 45.5668 53.2329 45.6111C53.1785 45.8064 53.1121 45.9997 53.0356 46.1889C53.0195 46.2292 53.0034 46.2715 52.9853 46.3118C52.9389 46.4225 52.8886 46.5312 52.8342 46.6379C52.8081 46.6923 52.7799 46.7446 52.7517 46.797L52.7497 46.795L42.6705 41.1856L26.8853 32.399L38.7564 26.9346L53.243 34.9842L53.4564 35.101Z" fill="url(#paint0_linear_1_2750)"/>
<path d="M53.2791 18.473L50.2066 20.8408L47.4864 25.1173L21.624 10.7213L31.4515 3.81934L37.3911 7.25021H37.3932L48.2777 13.5341L50.5307 14.8348C51.918 15.6361 52.8965 16.9569 53.2791 18.473Z" fill="url(#paint1_linear_1_2750)"/>
<path d="M37.3913 7.25151L0 28.6723V19.9059C0 17.8139 1.11544 15.881 2.9255 14.8361L23.8027 2.78372C25.6128 1.73876 27.8436 1.73876 29.6557 2.78372L37.3913 7.25151Z" fill="#21E786"/>
<path d="M53.4564 19.9046V22.9469L5.15638 50.3677L2.9255 49.0791C1.11544 48.0322 0 46.1013 0 44.0093V40.9731L48.2779 13.5342L50.5309 14.8349C52.3409 15.8798 53.4564 17.8127 53.4564 19.9046Z" fill="#21E786"/>
<path d="M53.4566 34.8594V44.0104C53.4566 44.1131 53.4545 44.2157 53.4485 44.3184C53.4465 44.3386 53.4465 44.3607 53.4445 44.3809C53.4405 44.4413 53.4364 44.5017 53.4304 44.5641C53.4243 44.6245 53.4183 44.6849 53.4102 44.7453C53.4042 44.8037 53.3941 44.8621 53.3861 44.9184C53.372 45.005 53.3579 45.0896 53.3398 45.1762C53.3297 45.2305 53.3176 45.2829 53.3056 45.3372C53.2935 45.3835 53.2814 45.4319 53.2693 45.4802C53.2592 45.5245 53.2472 45.5668 53.2331 45.6111C53.1787 45.8064 53.1123 45.9996 53.0358 46.1889C53.0196 46.2292 53.0035 46.2715 52.9854 46.3117C52.9391 46.4225 52.8888 46.5312 52.8344 46.6379C52.8082 46.6923 52.78 46.7446 52.7519 46.797C52.7196 46.8554 52.6874 46.9137 52.6532 46.9701C52.621 47.0285 52.5847 47.0849 52.5505 47.1413C52.478 47.252 52.4035 47.3627 52.325 47.4694C52.2445 47.5782 52.1619 47.6829 52.0774 47.7835C52.0331 47.8359 51.9888 47.8862 51.9445 47.9345C51.9002 47.9849 51.8539 48.0332 51.8076 48.0815C51.7149 48.1782 51.6183 48.2728 51.5176 48.3614C51.4794 48.3976 51.4391 48.4319 51.3988 48.4661C51.3747 48.4862 51.3505 48.5064 51.3264 48.5265C51.278 48.5688 51.2277 48.609 51.1754 48.6473C51.125 48.6876 51.0747 48.7258 51.0203 48.7621C50.9196 48.8366 50.8149 48.907 50.7082 48.9735C50.6498 49.0097 50.5915 49.046 50.5311 49.0802L29.6559 61.1325C27.8438 62.1775 25.6129 62.1775 23.8029 61.1325L16.168 56.7251L42.6707 41.1855L53.2431 34.9842L53.4566 34.8594Z" fill="#21E786"/>
<path d="M10.498 10.4639V53.4504L5.15638 50.3679L2.9255 49.0793C1.11544 48.0323 0 46.1015 0 44.0095V19.9048C0 17.8129 1.11544 15.88 2.9255 14.835L10.498 10.4639Z" fill="#21E786"/>
</g>
<path d="M106.608 40.292C106.608 42.852 105.808 44.788 104.208 46.1C102.64 47.412 99.856 48.068 95.856 48.068H80.88V17.684H82.752H95.376C98.032 17.684 100.096 17.972 101.568 18.548C103.072 19.092 104.128 19.908 104.736 20.996C105.344 22.084 105.648 23.444 105.648 25.076C105.648 27.316 105.104 29.06 104.016 30.308C102.96 31.524 100.96 32.26 98.016 32.516V32.66C100.192 32.82 101.904 33.188 103.152 33.764C104.4 34.308 105.28 35.108 105.792 36.164C106.336 37.22 106.608 38.596 106.608 40.292ZM93.264 23.732H88.56V29.684H93.264C94.832 29.684 95.968 29.492 96.672 29.108C97.376 28.692 97.728 27.892 97.728 26.708C97.728 25.556 97.376 24.772 96.672 24.356C95.968 23.94 94.832 23.732 93.264 23.732ZM94.224 35.972H88.56V42.068H94.224C95.792 42.068 96.928 41.86 97.632 41.444C98.336 40.996 98.688 40.18 98.688 38.996C98.688 37.78 98.336 36.98 97.632 36.596C96.928 36.18 95.792 35.972 94.224 35.972ZM118.607 48.068H110.927V17.684H118.607V48.068ZM144.06 17.684H151.74V48.068H144.108L135.468 35.204C134.796 34.18 134.236 33.316 133.788 32.612C133.34 31.908 132.924 31.204 132.54 30.5C132.156 29.796 131.724 28.964 131.244 28.004L131.1 28.196C131.548 29.732 131.82 31.172 131.916 32.516C132.012 33.828 132.06 35.108 132.06 36.356V48.068H124.38V17.684H132.012L140.652 30.548C141.324 31.54 141.884 32.404 142.332 33.14C142.78 33.844 143.196 34.548 143.58 35.252C143.964 35.956 144.396 36.788 144.876 37.748L145.02 37.556C144.7 36.212 144.46 34.916 144.3 33.668C144.14 32.388 144.06 31.124 144.06 29.876V17.684ZM185.361 47.924V48.068H177.201C176.977 47.3 176.705 46.42 176.385 45.428C176.097 44.436 175.777 43.38 175.425 42.26H165.057C164.417 44.5 163.825 46.436 163.281 48.068H155.121V47.972L164.961 17.684H175.521L185.361 47.924ZM170.145 23.156C169.825 24.788 169.361 26.772 168.753 29.108C168.145 31.444 167.505 33.828 166.833 36.26H173.697C172.993 33.828 172.337 31.444 171.729 29.108C171.121 26.772 170.657 24.788 170.337 23.156H170.145ZM214.467 40.292C214.467 42.852 213.667 44.788 212.067 46.1C210.499 47.412 207.715 48.068 203.715 48.068H188.739V17.684H190.611H203.235C205.891 17.684 207.955 17.972 209.427 18.548C210.931 19.092 211.987 19.908 212.595 20.996C213.203 22.084 213.507 23.444 213.507 25.076C213.507 27.316 212.963 29.06 211.875 30.308C210.819 31.524 208.819 32.26 205.875 32.516V32.66C208.051 32.82 209.763 33.188 211.011 33.764C212.259 34.308 213.139 35.108 213.651 36.164C214.195 37.22 214.467 38.596 214.467 40.292ZM201.123 23.732H196.419V29.684H201.123C202.691 29.684 203.827 29.492 204.531 29.108C205.235 28.692 205.587 27.892 205.587 26.708C205.587 25.556 205.235 24.772 204.531 24.356C203.827 23.94 202.691 23.732 201.123 23.732ZM202.083 35.972H196.419V42.068H202.083C203.651 42.068 204.787 41.86 205.491 41.444C206.195 40.996 206.547 40.18 206.547 38.996C206.547 37.78 206.195 36.98 205.491 36.596C204.787 36.18 203.651 35.972 202.083 35.972ZM217.826 32.852C217.826 28.98 218.258 25.908 219.122 23.636C220.018 21.364 221.538 19.732 223.682 18.74C225.858 17.748 228.882 17.252 232.754 17.252C235.666 17.252 238.082 17.524 240.002 18.068C241.922 18.612 243.442 19.492 244.562 20.708C245.682 21.924 246.466 23.54 246.914 25.556C247.394 27.54 247.634 29.972 247.634 32.852C247.634 35.764 247.394 38.228 246.914 40.244C246.466 42.228 245.682 43.828 244.562 45.044C243.442 46.26 241.922 47.14 240.002 47.684C238.082 48.228 235.666 48.5 232.754 48.5C229.842 48.5 227.426 48.228 225.506 47.684C223.586 47.14 222.066 46.26 220.946 45.044C219.826 43.828 219.026 42.228 218.546 40.244C218.066 38.228 217.826 35.764 217.826 32.852ZM232.754 41.78C234.802 41.78 236.338 41.524 237.362 41.012C238.386 40.5 239.074 39.604 239.426 38.324C239.778 37.012 239.954 35.188 239.954 32.852C239.954 30.548 239.778 28.756 239.426 27.476C239.074 26.196 238.386 25.3 237.362 24.788C236.338 24.244 234.802 23.972 232.754 23.972C230.738 23.972 229.202 24.244 228.146 24.788C227.122 25.3 226.418 26.196 226.034 27.476C225.682 28.756 225.506 30.548 225.506 32.852C225.506 35.188 225.682 37.012 226.034 38.324C226.418 39.604 227.122 40.5 228.146 41.012C229.202 41.524 230.738 41.78 232.754 41.78ZM272.027 32.564L280.907 48.068H271.307L265.787 37.316H265.643L260.123 48.068H250.523L259.403 32.564V32.324L251.099 17.684H260.555L265.643 28.244H265.787L270.875 17.684H280.331L272.027 32.324V32.564Z" fill="white"/>
<defs>
<linearGradient id="paint0_linear_1_2750" x1="51.8456" y1="41.6648" x2="30.4027" y2="26.9668" gradientUnits="userSpaceOnUse">
<stop stop-color="#00FFA3"/>
<stop offset="1" stop-color="#00FFA3" stop-opacity="0"/>
</linearGradient>
<linearGradient id="paint1_linear_1_2750" x1="48.322" y1="21.3281" x2="28.8925" y2="8.74416" gradientUnits="userSpaceOnUse">
<stop stop-color="#00FFA3"/>
<stop offset="1" stop-color="#00FFA3" stop-opacity="0"/>
</linearGradient>
<clipPath id="clip0_1_2750">
<rect width="54" height="60" fill="white" transform="translate(0 2)"/>
</clipPath>
</defs>
</svg>
