<svg width="56" height="56" viewBox="0 0 56 56" fill="none" xmlns="http://www.w3.org/2000/svg">
<path d="M0 6C0 2.68629 2.68629 0 6 0C20.6667 0 35.3333 0 50 0C53.3137 0 56 2.68629 56 6V50C56 53.3137 53.3137 56 50 56C35.3333 56 20.6667 56 6 56C2.68629 56 0 53.3137 0 50V6Z" fill="#141B22"/>
<g clip-path="url(#clip0_1_2790)">
<path d="M45.6374 29.0673V35.0069C45.6374 35.0754 45.6361 35.1439 45.6321 35.2123C45.6307 35.2257 45.6307 35.2405 45.6294 35.2539C45.6267 35.2942 45.624 35.3345 45.62 35.3761C45.616 35.4163 45.6119 35.4566 45.6066 35.4969C45.6025 35.5358 45.5958 35.5747 45.5905 35.6123C45.5811 35.67 45.5717 35.7264 45.5596 35.7841C45.5529 35.8204 45.5448 35.8553 45.5368 35.8915C45.5287 35.9224 45.5207 35.9546 45.5126 35.9868C45.5059 36.0163 45.4978 36.0445 45.4884 36.0741C45.4522 36.2043 45.4079 36.3331 45.3569 36.4593C45.3462 36.4861 45.3354 36.5143 45.3233 36.5412C45.2925 36.615 45.2589 36.6875 45.2227 36.7586C45.2052 36.7949 45.1864 36.8298 45.1676 36.8647L45.1663 36.8633L38.4468 33.1237L27.9233 27.266L35.8374 23.623L45.4951 28.9895L45.6374 29.0673Z" fill="url(#paint0_linear_1_2790)"/>
<path d="M45.5194 17.983L43.471 19.5615L41.6576 22.4125L24.416 12.8152L30.9677 8.21387L34.9274 10.5011H34.9288L42.1851 14.6904L43.6872 15.5575C44.612 16.0917 45.2643 16.9723 45.5194 17.983Z" fill="url(#paint1_linear_1_2790)"/>
<path d="M34.9275 10.501L10 24.7815V18.9373C10 17.5426 10.7436 16.254 11.9503 15.5574L25.8685 7.52248C27.0752 6.82584 28.5624 6.82584 29.7705 7.52248L34.9275 10.501Z" fill="#21E786"/>
<path d="M45.6376 18.9374V20.9656L13.4376 39.2461L11.9503 38.3871C10.7436 37.6891 10 36.4018 10 35.0072V32.983L42.1852 14.6904L43.6872 15.5575C44.894 16.2542 45.6376 17.5428 45.6376 18.9374Z" fill="#21E786"/>
<path d="M45.6374 28.9062V35.0069C45.6374 35.0754 45.636 35.1438 45.632 35.2123C45.6307 35.2257 45.6307 35.2405 45.6293 35.2539C45.6266 35.2942 45.624 35.3344 45.6199 35.376C45.6159 35.4163 45.6119 35.4566 45.6065 35.4969C45.6025 35.5358 45.5958 35.5747 45.5904 35.6123C45.581 35.67 45.5716 35.7264 45.5595 35.7841C45.5528 35.8203 45.5448 35.8552 45.5367 35.8915C45.5287 35.9224 45.5206 35.9546 45.5125 35.9868C45.5058 36.0163 45.4978 36.0445 45.4884 36.074C45.4521 36.2042 45.4079 36.3331 45.3568 36.4593C45.3461 36.4861 45.3354 36.5143 45.3233 36.5411C45.2924 36.615 45.2589 36.6875 45.2226 36.7586C45.2052 36.7948 45.1864 36.8297 45.1676 36.8646C45.1461 36.9036 45.1246 36.9425 45.1018 36.9801C45.0803 37.019 45.0562 37.0566 45.0334 37.0942C44.985 37.168 44.9354 37.2418 44.883 37.313C44.8293 37.3854 44.7743 37.4552 44.7179 37.5224C44.6884 37.5573 44.6589 37.5908 44.6293 37.623C44.5998 37.6566 44.5689 37.6888 44.538 37.721C44.4763 37.7854 44.4119 37.8485 44.3448 37.9076C44.3193 37.9318 44.2924 37.9546 44.2656 37.9774C44.2495 37.9908 44.2334 38.0042 44.2172 38.0177C44.185 38.0458 44.1515 38.0727 44.1166 38.0982C44.083 38.125 44.0495 38.1505 44.0132 38.1747C43.9461 38.2244 43.8763 38.2714 43.8052 38.3156C43.7662 38.3398 43.7273 38.364 43.687 38.3868L29.7703 46.4217C28.5622 47.1183 27.075 47.1183 25.8683 46.4217L20.7783 43.4834L38.4468 33.1237L45.4951 28.9895L45.6374 28.9062Z" fill="#21E786"/>
<path d="M16.9987 12.6431V41.3008L13.4376 39.2458L11.9503 38.3867C10.7436 37.6887 10 36.4015 10 35.0068V18.937C10 17.5424 10.7436 16.2538 11.9503 15.5572L16.9987 12.6431Z" fill="#21E786"/>
</g>
<defs>
<linearGradient id="paint0_linear_1_2790" x1="44.5636" y1="33.4432" x2="30.2683" y2="23.6445" gradientUnits="userSpaceOnUse">
<stop stop-color="#00FFA3"/>
<stop offset="1" stop-color="#00FFA3" stop-opacity="0"/>
</linearGradient>
<linearGradient id="paint1_linear_1_2790" x1="42.2147" y1="19.8863" x2="29.2617" y2="11.4971" gradientUnits="userSpaceOnUse">
<stop stop-color="#00FFA3"/>
<stop offset="1" stop-color="#00FFA3" stop-opacity="0"/>
</linearGradient>
<clipPath id="clip0_1_2790">
<rect width="36" height="40" fill="white" transform="translate(10 7)"/>
</clipPath>
</defs>
</svg>
