<svg width="189" height="189" viewBox="0 0 189 189" fill="none" xmlns="http://www.w3.org/2000/svg">
<path d="M0 20.25C0 9.06624 9.06623 0 20.25 0C69.75 0 119.25 0 168.75 0C179.934 0 189 9.06623 189 20.25V168.75C189 179.934 179.934 189 168.75 189C119.25 189 69.75 189 20.25 189C9.06624 189 0 179.934 0 168.75V20.25Z" fill="#141B22"/>
<g clip-path="url(#clip0_1_2823)">
<path d="M154.027 98.103V118.149C154.027 118.38 154.022 118.611 154.009 118.842C154.004 118.888 154.004 118.937 154 118.983C153.991 119.119 153.981 119.255 153.968 119.395C153.954 119.531 153.941 119.667 153.923 119.803C153.909 119.934 153.886 120.065 153.868 120.192C153.836 120.387 153.805 120.577 153.764 120.772C153.741 120.894 153.714 121.012 153.687 121.135C153.66 121.239 153.633 121.347 153.605 121.456C153.583 121.556 153.556 121.651 153.524 121.751C153.402 122.19 153.252 122.625 153.08 123.051C153.044 123.141 153.007 123.237 152.967 123.327C152.863 123.576 152.749 123.821 152.627 124.061C152.568 124.183 152.505 124.301 152.441 124.419L152.437 124.414L129.758 111.793L94.2417 92.0235L120.952 79.7285L153.547 97.8403L154.027 98.103Z" fill="url(#paint0_linear_1_2823)"/>
<path d="M153.629 60.6915L146.716 66.019L140.596 75.6412L82.4053 43.2502L104.517 27.7207L117.881 35.4402H117.886L142.376 49.5789L147.445 52.5054C150.567 54.3085 152.768 57.2803 153.629 60.6915Z" fill="url(#paint1_linear_1_2823)"/>
<path d="M117.88 35.4409L33.75 83.6377V63.9132C33.75 59.2063 36.2597 54.8573 40.3324 52.5062L87.306 25.3884C91.3787 23.0372 96.3982 23.0372 100.475 25.3884L117.88 35.4409Z" fill="#21E786"/>
<path d="M154.027 63.9127V70.7578L45.3518 132.455L40.3324 129.555C36.2597 127.2 33.75 122.855 33.75 118.148V111.317L142.375 49.5791L147.444 52.5056C151.517 54.8568 154.027 59.2058 154.027 63.9127Z" fill="#21E786"/>
<path d="M154.027 97.5588V118.149C154.027 118.38 154.022 118.611 154.009 118.842C154.004 118.887 154.004 118.937 154 118.982C153.991 119.118 153.981 119.254 153.968 119.394C153.954 119.53 153.941 119.666 153.923 119.802C153.909 119.934 153.886 120.065 153.868 120.192C153.836 120.387 153.805 120.577 153.764 120.772C153.741 120.894 153.714 121.012 153.687 121.134C153.66 121.238 153.633 121.347 153.605 121.456C153.583 121.555 153.556 121.65 153.524 121.75C153.402 122.19 153.252 122.624 153.08 123.05C153.044 123.141 153.007 123.236 152.967 123.327C152.863 123.576 152.749 123.82 152.627 124.061C152.568 124.183 152.505 124.301 152.441 124.418C152.369 124.55 152.296 124.681 152.219 124.808C152.147 124.939 152.065 125.066 151.988 125.193C151.825 125.442 151.657 125.691 151.481 125.931C151.3 126.176 151.114 126.412 150.924 126.638C150.824 126.756 150.724 126.869 150.625 126.978C150.525 127.091 150.421 127.2 150.317 127.309C150.108 127.526 149.891 127.739 149.664 127.938C149.578 128.02 149.488 128.097 149.397 128.174C149.343 128.219 149.288 128.265 149.234 128.31C149.125 128.405 149.012 128.496 148.894 128.582C148.781 128.672 148.668 128.758 148.545 128.84C148.319 129.007 148.083 129.166 147.843 129.316C147.712 129.397 147.58 129.479 147.444 129.556L100.475 156.673C96.3981 159.025 91.3786 159.025 87.306 156.673L70.1274 146.757L129.758 111.793L153.547 97.8397L154.027 97.5588Z" fill="#21E786"/>
<path d="M57.3705 42.6709V139.391L45.3518 132.455L40.3324 129.556C36.2597 127.2 33.75 122.855 33.75 118.149V63.913C33.75 59.2061 36.2597 54.8571 40.3324 52.506L57.3705 42.6709Z" fill="#21E786"/>
</g>
<defs>
<linearGradient id="paint0_linear_1_2823" x1="150.403" y1="112.871" x2="102.156" y2="79.801" gradientUnits="userSpaceOnUse">
<stop stop-color="#00FFA3"/>
<stop offset="1" stop-color="#00FFA3" stop-opacity="0"/>
</linearGradient>
<linearGradient id="paint1_linear_1_2823" x1="142.476" y1="67.1153" x2="98.7593" y2="38.8015" gradientUnits="userSpaceOnUse">
<stop stop-color="#00FFA3"/>
<stop offset="1" stop-color="#00FFA3" stop-opacity="0"/>
</linearGradient>
<clipPath id="clip0_1_2823">
<rect width="121.5" height="135" fill="white" transform="translate(33.75 23.625)"/>
</clipPath>
</defs>
</svg>
