<svg width="38" height="38" viewBox="0 0 38 38" fill="none" xmlns="http://www.w3.org/2000/svg">
<path d="M0 6C0 2.68629 2.68629 0 6 0C14.6667 0 23.3333 0 32 0C35.3137 0 38 2.68629 38 6V32C38 35.3137 35.3137 38 32 38C23.3333 38 14.6667 38 6 38C2.68629 38 0 35.3137 0 32V6Z" fill="#141B22"/>
<g clip-path="url(#clip0_1_2834)">
<path d="M30.7586 19.7116V23.6713C30.7586 23.7169 30.7577 23.7626 30.755 23.8082C30.7541 23.8172 30.7541 23.827 30.7532 23.8359C30.7515 23.8628 30.7497 23.8896 30.747 23.9174C30.7443 23.9442 30.7416 23.9711 30.738 23.9979C30.7353 24.0239 30.7309 24.0498 30.7273 24.0749C30.721 24.1134 30.7148 24.1509 30.7067 24.1894C30.7022 24.2136 30.6969 24.2368 30.6915 24.261C30.6861 24.2816 30.6808 24.3031 30.6754 24.3245C30.6709 24.3442 30.6656 24.363 30.6593 24.3827C30.6351 24.4695 30.6056 24.5554 30.5716 24.6395C30.5644 24.6574 30.5573 24.6762 30.5492 24.6941C30.5286 24.7433 30.5063 24.7917 30.4821 24.8391C30.4705 24.8632 30.4579 24.8865 30.4454 24.9098L30.4445 24.9089L25.9649 22.4158L18.9492 18.5107L24.2253 16.082L30.6638 19.6597L30.7586 19.7116Z" fill="url(#paint0_linear_1_2834)"/>
<path d="M30.6793 12.3213L29.3137 13.3737L28.1048 15.2744L16.6104 8.87615L20.9781 5.80859L23.618 7.33343H23.6189L28.4564 10.1263L29.4578 10.7043C30.0743 11.0605 30.5092 11.6475 30.6793 12.3213Z" fill="url(#paint1_linear_1_2834)"/>
<path d="M23.6183 7.334L7 16.8544V12.9582C7 12.0284 7.49575 11.1694 8.30022 10.7049L17.579 5.34832C18.3834 4.88389 19.3749 4.88389 20.1803 5.34832L23.6183 7.334Z" fill="#21E786"/>
<path d="M30.7584 13.3313V14.6834L9.29172 26.8705L8.30022 26.2978C7.49575 25.8324 7 24.9743 7 24.0445V22.6951L28.4568 10.5L29.4582 11.0781C30.2626 11.5425 30.7584 12.4016 30.7584 13.3313Z" fill="#21E786"/>
<path d="M30.7583 19.6035V23.6706C30.7583 23.7163 30.7574 23.7619 30.7547 23.8075C30.7538 23.8165 30.7538 23.8263 30.7529 23.8353C30.7511 23.8621 30.7493 23.889 30.7466 23.9167C30.7439 23.9436 30.7413 23.9704 30.7377 23.9973C30.735 24.0232 30.7305 24.0492 30.7269 24.0742C30.7207 24.1127 30.7144 24.1503 30.7064 24.1888C30.7019 24.2129 30.6965 24.2362 30.6911 24.2603C30.6858 24.2809 30.6804 24.3024 30.675 24.3239C30.6706 24.3436 30.6652 24.3624 30.6589 24.382C30.6348 24.4688 30.6052 24.5547 30.5712 24.6389C30.5641 24.6568 30.5569 24.6756 30.5489 24.6934C30.5283 24.7427 30.5059 24.791 30.4817 24.8384C30.4701 24.8626 30.4576 24.8858 30.4451 24.9091C30.4307 24.9351 30.4164 24.961 30.4012 24.9861C30.3869 25.012 30.3708 25.0371 30.3556 25.0621C30.3234 25.1113 30.2902 25.1606 30.2553 25.208C30.2196 25.2563 30.1829 25.3028 30.1453 25.3476C30.1256 25.3709 30.1059 25.3932 30.0862 25.4147C30.0665 25.4371 30.0459 25.4585 30.0254 25.48C29.9842 25.523 29.9413 25.565 29.8965 25.6044C29.8795 25.6205 29.8616 25.6357 29.8437 25.6509C29.833 25.6599 29.8222 25.6688 29.8115 25.6778C29.79 25.6966 29.7676 25.7145 29.7444 25.7315C29.722 25.7494 29.6996 25.7664 29.6755 25.7825C29.6307 25.8156 29.5842 25.8469 29.5368 25.8764C29.5108 25.8926 29.4849 25.9087 29.458 25.9239L20.1802 31.2805C19.3748 31.7449 18.3833 31.7449 17.5788 31.2805L14.1855 29.3216L25.9645 22.4151L30.6634 19.659L30.7583 19.6035Z" fill="#21E786"/>
<path d="M12 8.5V28.5L9.45589 27.0658L8.39336 26.4663C7.53126 25.9792 7 25.0808 7 24.1075V12.8925C7 11.9192 7.53126 11.0199 8.39336 10.5337L12 8.5Z" fill="#21E786"/>
</g>
<defs>
<linearGradient id="paint0_linear_1_2834" x1="30.0427" y1="22.6288" x2="20.5125" y2="16.0963" gradientUnits="userSpaceOnUse">
<stop stop-color="#00FFA3"/>
<stop offset="1" stop-color="#00FFA3" stop-opacity="0"/>
</linearGradient>
<linearGradient id="paint1_linear_1_2834" x1="28.4761" y1="13.5902" x2="19.8408" y2="7.9974" gradientUnits="userSpaceOnUse">
<stop stop-color="#00FFA3"/>
<stop offset="1" stop-color="#00FFA3" stop-opacity="0"/>
</linearGradient>
<clipPath id="clip0_1_2834">
<rect width="24" height="27" fill="white" transform="translate(7 5)"/>
</clipPath>
</defs>
</svg>
