<svg width="84" height="84" viewBox="0 0 84 84" fill="none" xmlns="http://www.w3.org/2000/svg">
<path d="M0 9C0 4.02944 4.02944 0 9 0C31 0 53 0 75 0C79.9706 0 84 4.02944 84 9V75C84 79.9706 79.9706 84 75 84C53 84 31 84 9 84C4.02944 84 0 79.9706 0 75V9Z" fill="#141B22"/>
<g clip-path="url(#clip0_1_2801)">
<path d="M68.4564 43.601V52.5104C68.4564 52.6131 68.4544 52.7158 68.4483 52.8185C68.4463 52.8386 68.4463 52.8607 68.4443 52.8809C68.4403 52.9413 68.4363 53.0017 68.4302 53.0641C68.4242 53.1245 68.4181 53.1849 68.4101 53.2453C68.404 53.3037 68.394 53.3621 68.3859 53.4185C68.3718 53.505 68.3577 53.5896 68.3396 53.6762C68.3295 53.7305 68.3175 53.7829 68.3054 53.8373C68.2933 53.8836 68.2812 53.9319 68.2691 53.9802C68.2591 54.0245 68.247 54.0668 68.2329 54.1111C68.1785 54.3064 68.1121 54.4997 68.0356 54.6889C68.0195 54.7292 68.0034 54.7715 67.9853 54.8118C67.9389 54.9225 67.8886 55.0312 67.8342 55.1379C67.8081 55.1923 67.7799 55.2446 67.7517 55.297L67.7497 55.295L57.6705 49.6856L41.8853 40.899L53.7564 35.4346L68.243 43.4842L68.4564 43.601Z" fill="url(#paint0_linear_1_2801)"/>
<path d="M68.2795 26.973L65.2071 29.3408L62.4869 33.6173L36.6245 19.2213L46.452 12.3193L52.3916 15.7502H52.3936L63.2782 22.0341L65.5312 23.3348C66.9185 24.1361 67.897 25.4569 68.2795 26.973Z" fill="url(#paint1_linear_1_2801)"/>
<path d="M52.3913 15.7515L15 37.1723V28.4059C15 26.3139 16.1154 24.381 17.9255 23.3361L38.8027 11.2837C40.6128 10.2388 42.8436 10.2388 44.6557 11.2837L52.3913 15.7515Z" fill="#21E786"/>
<path d="M68.4564 28.4046V31.4469L20.1564 58.8677L17.9255 57.5791C16.1154 56.5322 15 54.6013 15 52.5093V49.4731L63.2779 22.0342L65.5309 23.3349C67.3409 24.3798 68.4564 26.3127 68.4564 28.4046Z" fill="#21E786"/>
<path d="M68.4566 43.3594V52.5104C68.4566 52.6131 68.4545 52.7157 68.4485 52.8184C68.4465 52.8386 68.4465 52.8607 68.4445 52.8809C68.4405 52.9413 68.4364 53.0017 68.4304 53.0641C68.4243 53.1245 68.4183 53.1849 68.4102 53.2453C68.4042 53.3037 68.3941 53.3621 68.3861 53.4184C68.372 53.505 68.3579 53.5896 68.3398 53.6762C68.3297 53.7305 68.3176 53.7829 68.3056 53.8372C68.2935 53.8835 68.2814 53.9319 68.2693 53.9802C68.2592 54.0245 68.2472 54.0668 68.2331 54.1111C68.1787 54.3064 68.1123 54.4996 68.0358 54.6889C68.0196 54.7292 68.0035 54.7715 67.9854 54.8117C67.9391 54.9225 67.8888 55.0312 67.8344 55.1379C67.8082 55.1923 67.78 55.2446 67.7519 55.297C67.7196 55.3554 67.6874 55.4137 67.6532 55.4701C67.621 55.5285 67.5847 55.5849 67.5505 55.6413C67.478 55.752 67.4035 55.8627 67.325 55.9694C67.2445 56.0782 67.1619 56.1829 67.0774 56.2835C67.0331 56.3359 66.9888 56.3862 66.9445 56.4345C66.9002 56.4849 66.8539 56.5332 66.8076 56.5815C66.7149 56.6782 66.6183 56.7728 66.5176 56.8614C66.4794 56.8976 66.4391 56.9319 66.3988 56.9661C66.3747 56.9862 66.3505 57.0064 66.3264 57.0265C66.278 57.0688 66.2277 57.109 66.1754 57.1473C66.125 57.1876 66.0747 57.2258 66.0203 57.2621C65.9196 57.3366 65.8149 57.407 65.7082 57.4735C65.6498 57.5097 65.5915 57.546 65.5311 57.5802L44.6559 69.6325C42.8438 70.6775 40.6129 70.6775 38.8029 69.6325L31.168 65.2251L57.6707 49.6855L68.2431 43.4842L68.4566 43.3594Z" fill="#21E786"/>
<path d="M25.498 18.9639V61.9504L20.1564 58.8679L17.9255 57.5793C16.1154 56.5323 15 54.6015 15 52.5095V28.4048C15 26.3129 16.1154 24.38 17.9255 23.335L25.498 18.9639Z" fill="#21E786"/>
</g>
<defs>
<linearGradient id="paint0_linear_1_2801" x1="66.8456" y1="50.1648" x2="45.4027" y2="35.4668" gradientUnits="userSpaceOnUse">
<stop stop-color="#00FFA3"/>
<stop offset="1" stop-color="#00FFA3" stop-opacity="0"/>
</linearGradient>
<linearGradient id="paint1_linear_1_2801" x1="63.3225" y1="29.8281" x2="43.893" y2="17.2442" gradientUnits="userSpaceOnUse">
<stop stop-color="#00FFA3"/>
<stop offset="1" stop-color="#00FFA3" stop-opacity="0"/>
</linearGradient>
<clipPath id="clip0_1_2801">
<rect width="54" height="60" fill="white" transform="translate(15 10.5)"/>
</clipPath>
</defs>
</svg>
