<svg width="26" height="26" viewBox="0 0 26 26" fill="none" xmlns="http://www.w3.org/2000/svg">
<path d="M20.9511 6.77432C19.0474 5.26701 16.0358 5.01151 15.9069 5.00231C15.707 4.98577 15.5165 5.09606 15.4343 5.27804C15.4268 5.28907 15.3614 5.43796 15.2886 5.66957C16.5477 5.87913 18.0946 6.30007 19.4939 7.15482C19.7181 7.29085 19.7872 7.58128 19.6489 7.80186C19.5574 7.94708 19.4023 8.02612 19.2417 8.02612C19.1557 8.02612 19.0679 8.00222 18.9895 7.95443C16.5832 6.48573 13.5791 6.4122 13 6.4122C12.4209 6.4122 9.41491 6.48573 7.01053 7.95443C6.78635 8.0923 6.49117 8.02428 6.35292 7.8037C6.21281 7.58128 6.28193 7.29269 6.50611 7.15482C7.9054 6.30191 9.45228 5.87913 10.7114 5.67141C10.6386 5.43796 10.5732 5.29091 10.5676 5.27804C10.4835 5.09606 10.2948 4.98209 10.0931 5.00231C9.96416 5.01151 6.95262 5.26701 5.02276 6.79454C4.0158 7.71179 2 13.0719 2 17.706C2 17.7887 2.02242 17.8677 2.06352 17.9394C3.45346 20.3438 7.24779 20.9724 8.11277 21C8.11651 21 8.12211 21 8.12772 21C8.28091 21 8.42476 20.9283 8.51444 20.807L9.38876 19.6232C7.02921 19.024 5.82422 18.0056 5.7551 17.9449C5.55707 17.774 5.53838 17.4762 5.71399 17.2814C5.88774 17.0865 6.19039 17.0681 6.38842 17.2391C6.41644 17.2648 8.63587 19.1177 13 19.1177C17.3716 19.1177 19.591 17.2575 19.6135 17.2391C19.8115 17.07 20.1123 17.0865 20.2879 17.2832C20.4616 17.478 20.4429 17.774 20.2449 17.9449C20.1758 18.0056 18.9708 19.024 16.6112 19.6232L17.4856 20.807C17.5752 20.9283 17.7191 21 17.8723 21C17.8779 21 17.8835 21 17.8872 21C18.7522 20.9724 22.5465 20.3438 23.9365 17.9394C23.9776 17.8677 24 17.7887 24 17.706C24 13.0719 21.9842 7.71179 20.9511 6.77432ZM9.8913 15.8237C8.96654 15.8237 8.21739 14.9818 8.21739 13.9414C8.21739 12.901 8.96654 12.0591 9.8913 12.0591C10.8161 12.0591 11.5652 12.901 11.5652 13.9414C11.5652 14.9818 10.8161 15.8237 9.8913 15.8237ZM16.1087 15.8237C15.1839 15.8237 14.4348 14.9818 14.4348 13.9414C14.4348 12.901 15.1839 12.0591 16.1087 12.0591C17.0335 12.0591 17.7826 12.901 17.7826 13.9414C17.7826 14.9818 17.0335 15.8237 16.1087 15.8237Z" fill="white"/>
</svg>
