<svg width="26" height="26" viewBox="0 0 26 26" fill="none" xmlns="http://www.w3.org/2000/svg">
<path d="M2.16797 13.0665C2.16923 18.4286 6.04457 22.9943 11.3081 23.8346V16.2166H8.55964V13.0665H11.3113V10.6685C11.1883 9.53221 11.574 8.39975 12.3639 7.57826C13.1538 6.75677 14.2659 6.33139 15.3987 6.41748C16.2118 6.43069 17.0228 6.50355 17.8254 6.63548V9.3158H16.4561C15.9846 9.25367 15.5107 9.41033 15.1677 9.74163C14.8248 10.0729 14.6499 10.543 14.6924 11.0195V13.0665H17.6943L17.2144 16.2177H14.6924V23.8346C20.3847 22.9295 24.3764 17.6988 23.7756 11.9319C23.1748 6.165 18.1919 1.88081 12.4367 2.18302C6.68153 2.48522 2.16888 7.26802 2.16797 13.0665Z" fill="white"/>
</svg>
