<svg width="26" height="26" viewBox="0 0 26 26" fill="none" xmlns="http://www.w3.org/2000/svg">
<path fill-rule="evenodd" clip-rule="evenodd" d="M14.3575 22.2124C18.8769 21.4924 22.3309 17.577 22.3309 12.8549C22.3309 7.62145 18.0883 3.37891 12.8549 3.37891C7.62145 3.37891 3.37891 7.62145 3.37891 12.8549C3.37891 17.577 6.83287 21.4923 11.3522 22.2124C11.3435 22.1906 11.3387 22.1669 11.3387 22.142V15.6983C11.3387 15.5936 11.2538 15.5088 11.1492 15.5088H9.25397C9.1493 15.5088 9.06445 15.4239 9.06445 15.3193V13.045C9.06445 12.9404 9.1493 12.8555 9.25397 12.8555H11.1492C11.2538 12.8555 11.3387 12.7707 11.3387 12.666V10.2022C11.3387 9.06512 12.5516 7.16992 14.371 7.16992H16.8348C16.9395 7.16992 17.0243 7.25477 17.0243 7.35944V9.63368C17.0243 9.73835 16.9394 9.8232 16.8348 9.8232H15.6976C15.3186 9.8232 14.371 10.2022 14.371 10.9603V12.6661C14.371 12.7708 14.4559 12.8555 14.5605 12.8555H16.4557C16.5604 12.8555 16.6452 12.9404 16.6452 13.045V15.3193C16.6452 15.4239 16.5604 15.5088 16.4557 15.5088H14.5605C14.4559 15.5088 14.371 15.5936 14.371 15.6983V22.142C14.371 22.1669 14.3662 22.1906 14.3575 22.2124Z" fill="white"/>
</svg>
