<svg width="26" height="26" viewBox="0 0 26 26" fill="none" xmlns="http://www.w3.org/2000/svg">
<path fill-rule="evenodd" clip-rule="evenodd" d="M8.87727 3.06C9.94364 3.01091 10.2836 3 13 3C15.7164 3 16.0564 3.01182 17.1218 3.06C18.1873 3.10818 18.9145 3.27818 19.5509 3.52455C20.2173 3.77636 20.8218 4.17 21.3218 4.67909C21.8309 5.17818 22.2236 5.78182 22.4745 6.44909C22.7218 7.08545 22.8909 7.81273 22.94 8.87636C22.9891 9.94455 23 10.2845 23 13C23 15.7164 22.9882 16.0564 22.94 17.1227C22.8918 18.1864 22.7218 18.9136 22.4745 19.55C22.2236 20.2174 21.8303 20.822 21.3218 21.3218C20.8218 21.8309 20.2173 22.2236 19.5509 22.4745C18.9145 22.7218 18.1873 22.8909 17.1236 22.94C16.0564 22.9891 15.7164 23 13 23C10.2836 23 9.94364 22.9882 8.87727 22.94C7.81364 22.8918 7.08636 22.7218 6.45 22.4745C5.78265 22.2236 5.17802 21.8302 4.67818 21.3218C4.16944 20.8224 3.77574 20.2181 3.52455 19.5509C3.27818 18.9145 3.10909 18.1873 3.06 17.1236C3.01091 16.0555 3 15.7155 3 13C3 10.2836 3.01182 9.94364 3.06 8.87818C3.10818 7.81273 3.27818 7.08545 3.52455 6.44909C3.77611 5.78189 4.17011 5.17756 4.67909 4.67818C5.17822 4.16955 5.78225 3.77586 6.44909 3.52455C7.08545 3.27818 7.81273 3.10909 8.87636 3.06H8.87727ZM17.0409 4.86C15.9864 4.81182 15.67 4.80182 13 4.80182C10.33 4.80182 10.0136 4.81182 8.95909 4.86C7.98364 4.90455 7.45455 5.06727 7.10182 5.20455C6.63545 5.38636 6.30182 5.60182 5.95182 5.95182C5.62004 6.27459 5.36471 6.66753 5.20455 7.10182C5.06727 7.45455 4.90455 7.98364 4.86 8.95909C4.81182 10.0136 4.80182 10.33 4.80182 13C4.80182 15.67 4.81182 15.9864 4.86 17.0409C4.90455 18.0164 5.06727 18.5455 5.20455 18.8982C5.36455 19.3318 5.62 19.7255 5.95182 20.0482C6.27455 20.38 6.66818 20.6355 7.10182 20.7955C7.45455 20.9327 7.98364 21.0955 8.95909 21.14C10.0136 21.1882 10.3291 21.1982 13 21.1982C15.6709 21.1982 15.9864 21.1882 17.0409 21.14C18.0164 21.0955 18.5455 20.9327 18.8982 20.7955C19.3645 20.6136 19.6982 20.3982 20.0482 20.0482C20.38 19.7255 20.6355 19.3318 20.7955 18.8982C20.9327 18.5455 21.0955 18.0164 21.14 17.0409C21.1882 15.9864 21.1982 15.67 21.1982 13C21.1982 10.33 21.1882 10.0136 21.14 8.95909C21.0955 7.98364 20.9327 7.45455 20.7955 7.10182C20.6136 6.63545 20.3982 6.30182 20.0482 5.95182C19.7254 5.62006 19.3325 5.36474 18.8982 5.20455C18.5455 5.06727 18.0164 4.90455 17.0409 4.86ZM11.7227 16.0827C12.4361 16.3797 13.2303 16.4197 13.9699 16.1961C14.7095 15.9725 15.3485 15.499 15.7778 14.8566C16.2071 14.2142 16.4 13.4426 16.3237 12.6737C16.2473 11.9049 15.9064 11.1863 15.3591 10.6409C15.0102 10.2923 14.5884 10.0253 14.1239 9.85922C13.6595 9.69316 13.164 9.63215 12.6732 9.68056C12.1823 9.72897 11.7083 9.88562 11.2853 10.1392C10.8622 10.3928 10.5007 10.737 10.2266 11.1471C9.9526 11.5572 9.7729 12.023 9.70047 12.5109C9.62804 12.9988 9.66468 13.4966 9.80776 13.9687C9.95084 14.4407 10.1968 14.8751 10.5279 15.2407C10.8591 15.6062 11.2671 15.8938 11.7227 16.0827ZM9.36545 9.36545C9.84275 8.88816 10.4094 8.50955 11.033 8.25124C11.6566 7.99293 12.325 7.85998 13 7.85998C13.675 7.85998 14.3434 7.99293 14.967 8.25124C15.5906 8.50955 16.1572 8.88816 16.6345 9.36545C17.1118 9.84275 17.4905 10.4094 17.7488 11.033C18.0071 11.6566 18.14 12.325 18.14 13C18.14 13.675 18.0071 14.3434 17.7488 14.967C17.4905 15.5906 17.1118 16.1572 16.6345 16.6345C15.6706 17.5985 14.3632 18.14 13 18.14C11.6368 18.14 10.3294 17.5985 9.36545 16.6345C8.40151 15.6706 7.85998 14.3632 7.85998 13C7.85998 11.6368 8.40151 10.3294 9.36545 9.36545ZM19.28 8.62545C19.3983 8.51388 19.493 8.37971 19.5585 8.23089C19.624 8.08206 19.6589 7.92161 19.6613 7.75903C19.6637 7.59645 19.6334 7.43504 19.5723 7.28437C19.5111 7.1337 19.4204 6.99683 19.3054 6.88185C19.1904 6.76688 19.0536 6.67614 18.9029 6.61502C18.7522 6.55389 18.5908 6.52361 18.4282 6.52598C18.2657 6.52835 18.1052 6.56332 17.9564 6.62881C17.8076 6.69431 17.6734 6.789 17.5618 6.90727C17.3448 7.1373 17.226 7.44284 17.2306 7.75903C17.2352 8.07522 17.3629 8.37716 17.5865 8.60077C17.8101 8.82437 18.1121 8.95203 18.4282 8.95663C18.7444 8.96124 19.05 8.84244 19.28 8.62545Z" fill="white"/>
</svg>
