<svg width="26" height="26" viewBox="0 0 26 26" fill="none" xmlns="http://www.w3.org/2000/svg">
<path d="M21.5195 3H4.47656C3.66016 3 3 3.64453 3 4.44141V21.5547C3 22.3516 3.66016 23 4.47656 23H21.5195C22.3359 23 23 22.3516 23 21.5586V4.44141C23 3.64453 22.3359 3 21.5195 3ZM8.93359 20.043H5.96484V10.4961H8.93359V20.043ZM7.44922 9.19531C6.49609 9.19531 5.72656 8.42578 5.72656 7.47656C5.72656 6.52734 6.49609 5.75781 7.44922 5.75781C8.39844 5.75781 9.16797 6.52734 9.16797 7.47656C9.16797 8.42188 8.39844 9.19531 7.44922 9.19531ZM20.043 20.043H17.0781V15.4023C17.0781 14.2969 17.0586 12.8711 15.5352 12.8711C13.9922 12.8711 13.7578 14.0781 13.7578 15.3242V20.043H10.7969V10.4961H13.6406V11.8008H13.6797C14.0742 11.0508 15.043 10.2578 16.4844 10.2578C19.4883 10.2578 20.043 12.2344 20.043 14.8047V20.043Z" fill="white"/>
</svg>
