<svg width="26" height="26" viewBox="0 0 26 26" fill="none" xmlns="http://www.w3.org/2000/svg">
<path d="M25.509 2.62463C25.0655 2.29073 24.3689 2.24295 23.6487 2.49968H23.6475C22.89 2.76953 2.20499 10.6466 1.36292 10.9685C1.20976 11.0157 -0.127842 11.4588 0.00993972 12.4458C0.132938 13.3357 1.20799 13.7043 1.33927 13.7468L6.59804 15.3454C6.94693 16.3765 8.23309 20.1807 8.51752 20.9934C8.69492 21.5 8.98409 22.1657 9.49086 22.3027C9.93555 22.455 10.3779 22.3159 10.6641 22.1164L13.8792 19.4688L19.0694 23.0624L19.1929 23.128C19.5454 23.2666 19.883 23.3359 20.2053 23.3359C20.4543 23.3359 20.6932 23.2945 20.9214 23.2115C21.699 22.928 22.0101 22.2702 22.0426 22.1956L25.9194 4.30516C26.1559 3.34965 25.8272 2.8635 25.509 2.62463ZM11.2359 15.9849L9.46189 20.1849L7.68787 14.9349L21.2886 6.00984L11.2359 15.9849Z" fill="white"/>
</svg>
