<svg width="26" height="26" viewBox="0 0 26 26" fill="none" xmlns="http://www.w3.org/2000/svg">
<path fill-rule="evenodd" clip-rule="evenodd" d="M23 13C23 18.5228 18.5228 23 13 23C7.47715 23 3 18.5228 3 13C3 7.47715 7.47715 3 13 3C18.5228 3 23 7.47715 23 13ZM13.3576 10.382C12.385 10.7865 10.4411 11.6239 7.52587 12.894C7.05248 13.0822 6.8045 13.2664 6.78193 13.4465C6.74378 13.7508 7.12488 13.8706 7.64385 14.0338C7.71444 14.056 7.78758 14.079 7.86257 14.1034C8.37315 14.2693 9.05998 14.4635 9.41703 14.4712C9.74091 14.4782 10.1024 14.3447 10.5015 14.0706C13.2253 12.232 14.6313 11.3027 14.7195 11.2827C14.7818 11.2685 14.8681 11.2508 14.9266 11.3027C14.9851 11.3547 14.9793 11.4531 14.9731 11.4795C14.9354 11.6405 13.4394 13.0313 12.6652 13.751C12.4239 13.9754 12.2527 14.1345 12.2177 14.1709C12.1393 14.2523 12.0594 14.3293 11.9826 14.4034C11.5083 14.8606 11.1525 15.2035 12.0023 15.7635C12.4107 16.0326 12.7374 16.2552 13.0634 16.4772C13.4194 16.7196 13.7745 16.9614 14.234 17.2626C14.351 17.3393 14.4628 17.419 14.5717 17.4966C14.986 17.792 15.3582 18.0574 15.8181 18.0151C16.0853 17.9905 16.3613 17.7392 16.5015 16.9898C16.8328 15.2188 17.484 11.3816 17.6345 9.80034C17.6477 9.66181 17.6311 9.48451 17.6177 9.40668C17.6044 9.32885 17.5766 9.21796 17.4754 9.13587C17.3556 9.03865 17.1706 9.01814 17.0879 9.0196C16.7118 9.02623 16.1347 9.22688 13.3576 10.382Z" fill="white"/>
</svg>
