<svg width="26" height="26" viewBox="0 0 26 26" fill="none" xmlns="http://www.w3.org/2000/svg">
<path d="M20.619 3H5.38095C4.0681 3 3 4.0681 3 5.38095V20.619C3 21.9319 4.0681 23 5.38095 23H20.619C21.9319 23 23 21.9319 23 20.619V5.38095C23 4.0681 21.9319 3 20.619 3ZM18.7171 11.7252C18.609 11.7352 18.4995 11.7419 18.3886 11.7419C17.1395 11.7419 16.0419 11.0995 15.4033 10.1286C15.4033 12.6757 15.4033 15.5738 15.4033 15.6224C15.4033 17.8648 13.5852 19.6829 11.3429 19.6829C9.10048 19.6829 7.28238 17.8648 7.28238 15.6224C7.28238 13.38 9.10048 11.5619 11.3429 11.5619C11.4276 11.5619 11.5105 11.5695 11.5938 11.5748V13.5757C11.5105 13.5657 11.4286 13.5505 11.3429 13.5505C10.1981 13.5505 9.27048 14.4781 9.27048 15.6229C9.27048 16.7676 10.1981 17.6952 11.3429 17.6952C12.4876 17.6952 13.4986 16.7933 13.4986 15.6486C13.4986 15.6033 13.5186 6.3181 13.5186 6.3181H15.431C15.611 8.0281 16.9914 9.37762 18.7171 9.50143V11.7252Z" fill="white"/>
</svg>
