<svg width="26" height="26" viewBox="0 0 26 26" fill="none" xmlns="http://www.w3.org/2000/svg">
<path d="M21.281 6.69494C22.2095 6.11408 22.9043 5.19944 23.2355 4.12181C22.363 4.66354 21.4084 5.04514 20.413 5.25013C19.0329 3.72244 16.8463 3.35066 15.0749 4.34255C13.3036 5.33444 12.3861 7.44443 12.8351 9.4935C9.26126 9.30575 5.93157 7.53918 3.67462 4.6334C2.49676 6.75934 3.09867 9.47701 5.05015 10.844C4.34447 10.8203 3.65445 10.6203 3.0376 10.2609C3.0376 10.2804 3.0376 10.2999 3.0376 10.3194C3.03801 12.5339 4.52953 14.4415 6.60383 14.8804C5.94928 15.0667 5.2627 15.0941 4.59647 14.9606C5.17983 16.8544 6.84781 18.1518 8.74895 18.1905C7.17438 19.4837 5.22983 20.185 3.22819 20.1816C2.8734 20.1821 2.51889 20.1608 2.1665 20.1177C4.19913 21.4845 6.56485 22.2099 8.98097 22.2074C12.3424 22.2315 15.5728 20.8448 17.9496 18.3575C20.3264 15.8701 21.6513 12.4896 21.628 8.97216C21.628 8.77056 21.6235 8.57004 21.6145 8.37061C22.485 7.71226 23.2364 6.8967 23.8332 5.96224C23.0222 6.33841 22.1619 6.58538 21.281 6.69494Z" fill="white"/>
</svg>
