<svg width="26" height="26" viewBox="0 0 26 26" fill="none" xmlns="http://www.w3.org/2000/svg">
<path d="M24.2523 6.92188C24.0312 5.75354 22.9776 4.90271 21.7549 4.63708C19.9253 4.26562 16.5391 4 12.8755 4C9.21396 4 5.77359 4.26562 3.94177 4.63708C2.72127 4.90271 1.66553 5.69959 1.44441 6.92188C1.22112 8.25 1 10.1094 1 12.5C1 14.8906 1.22112 16.75 1.4986 18.0781C1.72189 19.2465 2.77547 20.0973 3.99596 20.3629C5.93835 20.7344 9.26816 21 12.9318 21C16.5955 21 19.9253 20.7344 21.8677 20.3629C23.0882 20.0973 24.1417 19.3004 24.365 18.0781C24.5862 16.75 24.8636 14.8367 24.92 12.5C24.8073 10.1094 24.5298 8.25 24.2523 6.92188ZM9.87949 16.2188V8.78125L16.6497 12.5L9.87949 16.2188Z" fill="white"/>
</svg>
