<svg width="26" height="26" viewBox="0 0 26 26" fill="none" xmlns="http://www.w3.org/2000/svg">
<path d="M13 3C9.14067 3 6 6.21892 6 10.1765C6 15.7997 12.342 21.6057 12.6119 21.8496C12.7231 21.9501 12.8616 22 13 22C13.1384 22 13.2769 21.9501 13.3881 21.8504C13.658 21.6058 20 15.7997 20 10.1765C20 6.21892 16.8593 3 13 3ZM13 14.0833C10.8557 14.0833 9.11111 12.3076 9.11111 10.125C9.11111 7.94238 10.8557 6.16667 13 6.16667C15.1443 6.16667 16.8889 7.94238 16.8889 10.125C16.8889 12.3076 15.1443 14.0833 13 14.0833Z" fill="#21E786"/>
</svg>
