<svg width="26" height="26" viewBox="0 0 26 26" fill="none" xmlns="http://www.w3.org/2000/svg">
<path d="M21.3952 16.1277C20.1707 16.1277 18.9684 15.9362 17.8291 15.5597C17.2708 15.3693 16.5845 15.544 16.2438 15.8939L13.995 17.5915C11.387 16.1994 9.78057 14.5934 8.40745 12.0051L10.0551 9.81484C10.4832 9.38734 10.6367 8.76286 10.4528 8.17693C10.0746 7.03161 9.88255 5.8299 9.88255 4.6049C9.8826 3.71995 9.16266 3 8.27776 3H4.60484C3.71995 3 3 3.71995 3 4.60484C3 14.7481 11.252 23 21.3952 23C22.2801 23 23.0001 22.2801 23.0001 21.3952V17.7325C23 16.8477 22.2801 16.1277 21.3952 16.1277Z" fill="#21E786"/>
</svg>
