<svg width="26" height="26" viewBox="0 0 26 26" fill="none" xmlns="http://www.w3.org/2000/svg">
<mask id="mask0_1_3135" style="mask-type:luminance" maskUnits="userSpaceOnUse" x="4" y="4" width="18" height="17">
<path fill-rule="evenodd" clip-rule="evenodd" d="M4.6665 4.66602H20.6857V20.3316H4.6665V4.66602Z" fill="white" stroke="white"/>
</mask>
<g mask="url(#mask0_1_3135)">
<path fill-rule="evenodd" clip-rule="evenodd" d="M12.6768 5.87305C8.94026 5.87305 5.90039 8.84497 5.90039 12.499C5.90039 16.1529 8.94026 19.1257 12.6768 19.1257C16.4125 19.1257 19.4523 16.1529 19.4523 12.499C19.4523 8.84497 16.4125 5.87305 12.6768 5.87305ZM12.6766 20.3316C8.2599 20.3316 4.6665 16.8175 4.6665 12.4984C4.6665 8.17924 8.2599 4.66602 12.6766 4.66602C17.0933 4.66602 20.6859 8.17924 20.6859 12.4984C20.6859 16.8175 17.0933 20.3316 12.6766 20.3316Z" fill="#21E786"/>
<path d="M12.6768 5.37305C8.67479 5.37305 5.40039 8.55828 5.40039 12.499H6.40039C6.40039 9.13166 9.20574 6.37305 12.6768 6.37305V5.37305ZM5.40039 12.499C5.40039 16.4395 8.67471 19.6257 12.6768 19.6257V18.6257C9.20582 18.6257 6.40039 15.8663 6.40039 12.499H5.40039ZM12.6768 19.6257C16.6781 19.6257 19.9523 16.4395 19.9523 12.499H18.9523C18.9523 15.8664 16.1469 18.6257 12.6768 18.6257V19.6257ZM19.9523 12.499C19.9523 8.55832 16.678 5.37305 12.6768 5.37305V6.37305C16.1469 6.37305 18.9523 9.13162 18.9523 12.499H19.9523ZM12.6766 19.8316C8.52546 19.8316 5.1665 16.5309 5.1665 12.4984H4.1665C4.1665 17.1041 7.99435 20.8316 12.6766 20.8316V19.8316ZM5.1665 12.4984C5.1665 8.46592 8.52539 5.16602 12.6766 5.16602V4.16602C7.99442 4.16602 4.1665 7.89256 4.1665 12.4984H5.1665ZM12.6766 5.16602C16.8277 5.16602 20.1859 8.46585 20.1859 12.4984H21.1859C21.1859 7.89263 17.3589 4.16602 12.6766 4.16602V5.16602ZM20.1859 12.4984C20.1859 16.531 16.8277 19.8316 12.6766 19.8316V20.8316C17.3589 20.8316 21.1859 17.1041 21.1859 12.4984H20.1859Z" fill="#21E786"/>
</g>
<mask id="mask1_1_3135" style="mask-type:luminance" maskUnits="userSpaceOnUse" x="16" y="16" width="6" height="6">
<path fill-rule="evenodd" clip-rule="evenodd" d="M17.2012 17.2988H21.3333V21.3322H17.2012V17.2988Z" fill="white" stroke="white"/>
</mask>
<g mask="url(#mask1_1_3135)">
<path fill-rule="evenodd" clip-rule="evenodd" d="M20.7166 21.3322C20.5596 21.3322 20.4016 21.2735 20.2807 21.1561L17.3823 18.3298C17.1413 18.0941 17.1405 17.712 17.3815 17.4764C17.6217 17.2391 18.0123 17.2407 18.2541 17.4748L21.1526 20.3019C21.3935 20.5376 21.3944 20.9188 21.1534 21.1545C21.0333 21.2735 20.8746 21.3322 20.7166 21.3322Z" fill="#21E786"/>
<path d="M20.7166 21.3322C20.5595 21.3322 20.4016 21.2735 20.2807 21.1561L17.3823 18.3298C17.1413 18.0941 17.1405 17.712 17.3815 17.4764C17.6217 17.2391 18.0123 17.2407 18.2541 17.4748L21.1526 20.3019C21.3935 20.5376 21.3944 20.9188 21.1534 21.1545C21.0333 21.2735 20.8746 21.3322 20.7166 21.3322" stroke="#21E786"/>
</g>
</svg>
