<svg width="26" height="26" viewBox="0 0 26 26" fill="none" xmlns="http://www.w3.org/2000/svg">
<path d="M4.6665 10.4993C4.6665 9.25319 4.6665 8.63012 4.93445 8.16602C5.10999 7.86198 5.36247 7.6095 5.6665 7.43396C6.13061 7.16602 6.75368 7.16602 7.99984 7.16602H17.9998C19.246 7.16602 19.8691 7.16602 20.3332 7.43396C20.6372 7.6095 20.8897 7.86198 21.0652 8.16602C21.3332 8.63012 21.3332 9.25319 21.3332 10.4993C21.3332 10.8109 21.3332 10.9667 21.2662 11.0827C21.2223 11.1587 21.1592 11.2218 21.0832 11.2657C20.9671 11.3327 20.8114 11.3327 20.4998 11.3327H5.49984C5.1883 11.3327 5.03253 11.3327 4.9165 11.2657C4.84049 11.2218 4.77738 11.1587 4.73349 11.0827C4.6665 10.9667 4.6665 10.8109 4.6665 10.4993Z" fill="#21E786"/>
<path fill-rule="evenodd" clip-rule="evenodd" d="M5.25229 20.748C4.6665 20.1622 4.6665 19.2194 4.6665 17.3338V14.0005C4.6665 13.5291 4.6665 13.2934 4.81295 13.1469C4.9594 13.0005 5.1951 13.0005 5.6665 13.0005H20.3332C20.8046 13.0005 21.0403 13.0005 21.1867 13.1469C21.3332 13.2934 21.3332 13.5291 21.3332 14.0005V17.3338C21.3332 19.2194 21.3332 20.1622 20.7474 20.748C20.1616 21.3338 19.2188 21.3338 17.3332 21.3338H8.6665C6.78089 21.3338 5.83808 21.3338 5.25229 20.748ZM9.6665 16.1659C9.11422 16.1659 8.6665 16.6136 8.6665 17.1659C8.6665 17.7181 9.11422 18.1659 9.6665 18.1659H16.3332C16.8855 18.1659 17.3332 17.7181 17.3332 17.1659C17.3332 16.6136 16.8855 16.1659 16.3332 16.1659H9.6665Z" fill="#21E786"/>
<path d="M8.8335 5.5L8.8335 8" stroke="#21E786" stroke-width="2" stroke-linecap="round"/>
<path d="M17.1665 5.5L17.1665 8" stroke="#21E786" stroke-width="2" stroke-linecap="round"/>
</svg>
