<svg width="26" height="26" viewBox="0 0 26 26" fill="none" xmlns="http://www.w3.org/2000/svg">
<path d="M23.5 19V20.875C23.5 21.9093 22.6585 22.75 21.625 22.75H5.5C3.8455 22.75 2.5 21.4045 2.5 19.75C2.5 19.75 2.5 7.01125 2.5 7C2.5 5.3455 3.8455 4 5.5 4H19.375C19.9967 4 20.5 4.504 20.5 5.125C20.5 5.746 19.9967 6.25 19.375 6.25H5.5C5.08675 6.25 4.75 6.586 4.75 7C4.75 7.414 5.08675 7.75 5.5 7.75H21.625C22.6585 7.75 23.5 8.59075 23.5 9.625V11.5H19.75C17.6823 11.5 16 13.1823 16 15.25C16 17.3177 17.6823 19 19.75 19H23.5Z" fill="#21E786"/>
<path d="M23.5 13V17.5H19.75C18.5073 17.5 17.5 16.4927 17.5 15.25C17.5 14.0073 18.5073 13 19.75 13H23.5Z" fill="#21E786"/>
</svg>
