<svg width="26" height="26" viewBox="0 0 26 26" fill="none" xmlns="http://www.w3.org/2000/svg">
<path d="M12.9902 6.625C11.729 6.62476 10.4962 6.99852 9.44744 7.699C8.39873 8.39947 7.58129 9.39521 7.0985 10.5603C6.61572 11.7254 6.48928 13.0074 6.73516 14.2444C6.98105 15.4813 7.58822 16.6175 8.47988 17.5094C9.37155 18.4012 10.5077 19.0086 11.7446 19.2548C12.9814 19.5009 14.2635 19.3747 15.4287 18.8922C16.5939 18.4096 17.5898 17.5924 18.2905 16.5438C18.9912 15.4952 19.3652 14.2624 19.3652 13.0013C19.3634 11.3109 18.6913 9.69032 17.4961 8.49495C16.301 7.29958 14.6805 6.62708 12.9902 6.625Z" fill="#21E786"/>
<path d="M23.1254 11.877H21.6267C21.3282 11.877 21.042 11.9955 20.831 12.2065C20.62 12.4175 20.5015 12.7037 20.5015 13.0021C20.5015 13.3006 20.62 13.5868 20.831 13.7978C21.042 14.0088 21.3282 14.1273 21.6267 14.1273H23.1254C23.4238 14.1273 23.71 14.0088 23.921 13.7978C24.132 13.5868 24.2506 13.3006 24.2506 13.0021C24.2506 12.7037 24.132 12.4175 23.921 12.2065C23.71 11.9955 23.4238 11.877 23.1254 11.877Z" fill="#21E786"/>
<path d="M12.9902 20.5C12.692 20.5004 12.4061 20.6192 12.1953 20.8301C11.9845 21.041 11.866 21.327 11.8657 21.6252V23.1254C11.8657 23.4236 11.9842 23.7095 12.195 23.9204C12.4059 24.1313 12.6919 24.2497 12.9901 24.2497C13.2883 24.2497 13.5743 24.1313 13.7851 23.9204C13.996 23.7095 14.1144 23.4236 14.1144 23.1254V21.6252C14.1142 21.327 13.9957 21.0411 13.785 20.8301C13.5742 20.6192 13.2884 20.5005 12.9902 20.5Z" fill="#21E786"/>
<path d="M5.49719 13.0021C5.49694 12.7039 5.37841 12.418 5.16761 12.2071C4.95681 11.9961 4.67095 11.8774 4.37274 11.877H2.87421C2.57579 11.877 2.2896 11.9955 2.07858 12.2065C1.86757 12.4175 1.74902 12.7037 1.74902 13.0021C1.74902 13.3006 1.86757 13.5868 2.07858 13.7978C2.2896 14.0088 2.57579 14.1273 2.87421 14.1273H4.37274C4.67096 14.1269 4.95682 14.0082 5.16761 13.7972C5.37841 13.5863 5.49694 13.3003 5.49719 13.0021Z" fill="#21E786"/>
<path d="M12.9905 5.49972C13.2887 5.49927 13.5745 5.38056 13.7853 5.16963C13.9961 4.95869 14.1147 4.67276 14.1149 4.37455V2.87436C14.1149 2.57616 13.9965 2.29018 13.7856 2.07932C13.5748 1.86846 13.2888 1.75 12.9906 1.75C12.6924 1.75 12.4064 1.86846 12.1955 2.07932C11.9847 2.29018 11.8662 2.57616 11.8662 2.87436V4.37455C11.8664 4.67274 11.9849 4.95867 12.1957 5.16961C12.4065 5.38054 12.6923 5.49926 12.9905 5.49972Z" fill="#21E786"/>
<path d="M19.8853 7.69659L20.9461 6.63581C21.0508 6.53148 21.134 6.40751 21.1908 6.27101C21.2475 6.13451 21.2768 5.98815 21.277 5.84031C21.2771 5.69248 21.2481 5.54606 21.1916 5.40945C21.1351 5.27283 21.0522 5.1487 20.9477 5.04417C20.8431 4.93963 20.719 4.85673 20.5824 4.80022C20.4458 4.74371 20.2994 4.7147 20.1515 4.71484C20.0037 4.71499 19.8573 4.74429 19.7208 4.80106C19.5843 4.85784 19.4604 4.94098 19.356 5.04572L18.2952 6.10652C18.1905 6.21086 18.1074 6.33482 18.0506 6.47132C17.9938 6.60782 17.9645 6.75418 17.9644 6.90202C17.9642 7.04986 17.9932 7.19628 18.0497 7.33289C18.1062 7.4695 18.1891 7.59363 18.2937 7.69817C18.3982 7.8027 18.5223 7.8856 18.659 7.94211C18.7956 7.99861 18.942 8.02762 19.0898 8.02748C19.2377 8.02733 19.384 7.99803 19.5205 7.94125C19.657 7.88447 19.781 7.80133 19.8853 7.69659Z" fill="#21E786"/>
<path d="M19.8852 18.3073C19.7808 18.2026 19.6569 18.1195 19.5204 18.0627C19.3839 18.006 19.2375 17.9767 19.0897 17.9766C18.9419 17.9764 18.7955 18.0055 18.6589 18.062C18.5223 18.1185 18.3982 18.2014 18.2937 18.3059C18.1891 18.4104 18.1063 18.5345 18.0498 18.6711C17.9932 18.8077 17.9642 18.9541 17.9644 19.1019C17.9645 19.2497 17.9938 19.3961 18.0505 19.5326C18.1073 19.6691 18.1904 19.793 18.2951 19.8974L19.3559 20.9581C19.4602 21.0628 19.5842 21.146 19.7207 21.2027C19.8572 21.2594 20.0035 21.2887 20.1513 21.2889C20.2991 21.289 20.4455 21.26 20.5821 21.2035C20.7187 21.1469 20.8428 21.0641 20.9473 20.9595C21.0519 20.855 21.1348 20.7309 21.1913 20.5943C21.2478 20.4577 21.2768 20.3113 21.2767 20.1635C21.2765 20.0157 21.2473 19.8693 21.1905 19.7329C21.1338 19.5964 21.0507 19.4724 20.9459 19.3681L19.8852 18.3073Z" fill="#21E786"/>
<path d="M6.09494 18.3073L5.03416 19.3681C4.92939 19.4724 4.84622 19.5964 4.78941 19.7329C4.73261 19.8694 4.70329 20.0158 4.70313 20.1636C4.70297 20.3115 4.73197 20.4579 4.78848 20.5945C4.84499 20.7312 4.92789 20.8553 5.03244 20.9599C5.13699 21.0644 5.26113 21.1473 5.39777 21.2038C5.5344 21.2603 5.68083 21.2893 5.82869 21.2892C5.97655 21.289 6.12292 21.2597 6.25943 21.2029C6.39594 21.1461 6.5199 21.0629 6.62423 20.9581L7.68503 19.8974C7.78973 19.793 7.87284 19.6691 7.92959 19.5326C7.98633 19.3961 8.01561 19.2497 8.01574 19.1019C8.01587 18.9541 7.98685 18.8077 7.93034 18.6711C7.87384 18.5345 7.79095 18.4104 7.68642 18.3059C7.5819 18.2014 7.45779 18.1185 7.3212 18.062C7.18461 18.0055 7.03821 17.9764 6.89039 17.9766C6.74257 17.9767 6.59623 18.006 6.45974 18.0627C6.32324 18.1195 6.19928 18.2026 6.09494 18.3073Z" fill="#21E786"/>
<path d="M6.09497 7.69532C6.19935 7.79987 6.3233 7.88283 6.45975 7.93945C6.59621 7.99607 6.74248 8.02525 6.89021 8.02531C7.03795 8.02537 7.18424 7.99632 7.32074 7.93981C7.45724 7.88331 7.58127 7.80045 7.68573 7.69599C7.7902 7.59153 7.87305 7.4675 7.92955 7.331C7.98606 7.1945 8.01511 7.0482 8.01505 6.90047C8.01499 6.75274 7.98581 6.60646 7.92919 6.47001C7.87257 6.33356 7.78961 6.2096 7.68506 6.10523L6.62426 5.04443C6.51995 4.93954 6.39598 4.85627 6.25944 4.79938C6.1229 4.74249 5.97648 4.7131 5.82856 4.71289C5.68065 4.71269 5.53414 4.74167 5.39744 4.79818C5.26075 4.85469 5.13654 4.93762 5.03195 5.04221C4.92736 5.14681 4.84443 5.27101 4.78792 5.40771C4.73141 5.54441 4.70243 5.69091 4.70264 5.83883C4.70284 5.98675 4.73224 6.13317 4.78913 6.26971C4.84602 6.40625 4.9293 6.53022 5.03418 6.63452L6.09497 7.69532Z" fill="#21E786"/>
</svg>
