<svg width="26" height="26" viewBox="0 0 26 26" fill="none" xmlns="http://www.w3.org/2000/svg">
<path d="M3 11.7627V22.1268L9.68893 16.9448L3 11.7627Z" fill="#21E786"/>
<path d="M20.4512 9.06787V12.2544L22.4266 10.724L20.4512 9.06787Z" fill="#21E786"/>
<path d="M13.3792 3.1376C13.1602 2.95413 12.8405 2.95413 12.6216 3.1376L11.0618 4.44527H14.9389L13.3792 3.1376Z" fill="#21E786"/>
<path d="M5.54915 9.06787L3.57373 10.724L5.54915 12.2544V9.06787Z" fill="#21E786"/>
<path d="M10.8484 17.5312L3.78955 22.9999H22.2096L15.1507 17.5312H10.8484Z" fill="#21E786"/>
<path d="M16.311 16.9448L23 22.1269V11.7627L16.311 16.9448Z" fill="#21E786"/>
<path d="M12.8515 10.0059C12.3744 10.0059 11.8809 10.468 11.8809 11.2412C11.8809 12.0274 12.3623 12.5555 12.8119 12.5555C13.2854 12.5555 13.6737 12.0037 13.7016 11.3099L13.7024 11.1626C13.6812 10.478 13.3373 10.0059 12.8515 10.0059Z" fill="#21E786"/>
<path d="M15.1508 16.3591L19.2742 13.1646V6.20311C19.2742 5.87952 19.0108 5.61719 18.6859 5.61719H7.31334C6.98847 5.61719 6.7251 5.87952 6.7251 6.20311V13.1647L10.8485 16.3591H15.1508ZM8.85287 12.3712C8.57197 11.3074 8.71322 10.1859 9.25068 9.21327C9.7879 8.24103 10.6634 7.52183 11.7158 7.18813C12.8261 6.83599 14.0051 6.93973 15.0353 7.48023C16.0657 8.02076 16.8185 8.92996 17.1549 10.0404C17.1568 10.0464 17.1585 10.0525 17.1601 10.0586C17.3837 10.8929 17.3175 11.6806 16.9454 12.6124C16.6939 13.2422 16.0773 13.9152 15.1011 13.9152C14.7469 13.9152 14.4072 13.7705 14.1447 13.5078C14.0826 13.4456 14.0266 13.3779 13.9765 13.3061C13.6468 13.5732 13.247 13.7277 12.8118 13.7277C12.2432 13.7277 11.6905 13.4528 11.2952 12.9735C10.9141 12.5113 10.7043 11.8963 10.7043 11.2416C10.7043 10.5841 10.9275 9.9756 11.333 9.52838C11.7329 9.08738 12.2863 8.83442 12.8514 8.83442C13.1622 8.83442 13.4575 8.9082 13.7229 9.04722C13.7743 8.77563 14.0134 8.57044 14.3004 8.57044H14.3034C14.6282 8.57204 14.8903 8.83566 14.8887 9.15925L14.8725 12.4144C14.872 12.5144 14.9117 12.6141 14.9787 12.6811C15.0018 12.7044 15.0486 12.7433 15.1011 12.7433C15.5757 12.7433 15.7845 12.3488 15.8522 12.1793C16.127 11.4911 16.1791 10.9493 16.0258 10.3698C15.7798 9.56643 15.2336 8.90867 14.4871 8.51704C13.7379 8.124 12.8803 8.04865 12.0727 8.3047C10.4805 8.80953 9.56601 10.4648 9.99068 12.0731C10.3433 13.4087 11.5554 14.3681 12.9381 14.4062C13.2629 14.4152 13.5189 14.6847 13.5099 15.0081C13.501 15.3261 13.2395 15.5778 12.9222 15.5778C12.9167 15.5778 12.9112 15.5778 12.9056 15.5776C11.994 15.5525 11.0942 15.23 10.3718 14.6694C9.62127 14.087 9.09609 13.2924 8.85287 12.3712Z" fill="#21E786"/>
</svg>
