<svg width="24" height="26" viewBox="0 0 24 26" fill="none" xmlns="http://www.w3.org/2000/svg">
<path fill-rule="evenodd" clip-rule="evenodd" d="M16.6509 7.47H16.8665C19.7002 7.47 22 9.72 22 12.48V18C22 20.76 19.7002 23 16.8665 23H7.13347C4.29979 23 2 20.76 2 18V12.48C2 9.72 4.29979 7.47 7.13347 7.47H7.34908C7.36961 6.27 7.85216 5.15 8.72485 4.31C9.6078 3.46 10.7372 3.03 12.0103 3C14.5565 3 16.6201 5 16.6509 7.47ZM9.80289 5.38C9.22794 5.94 8.90967 6.68 8.88913 7.47H15.1109C15.0801 5.83 13.7043 4.5 12.0103 4.5C11.2197 4.5 10.3984 4.81 9.80289 5.38ZM15.9014 11.32C16.3326 11.32 16.6714 10.98 16.6714 10.57V9.41C16.6714 9 16.3326 8.66 15.9014 8.66C15.4805 8.66 15.1314 9 15.1314 9.41V10.57C15.1314 10.98 15.4805 11.32 15.9014 11.32ZM8.77615 10.57C8.77615 10.98 8.43735 11.32 8.00613 11.32C7.58519 11.32 7.23611 10.98 7.23611 10.57V9.41C7.23611 9 7.58519 8.66 8.00613 8.66C8.43735 8.66 8.77615 9 8.77615 9.41V10.57Z" fill="#21E786"/>
</svg>
