<svg width="26" height="26" viewBox="0 0 26 26" fill="none" xmlns="http://www.w3.org/2000/svg">
<path d="M13 3C10.0922 3 7.72656 5.36566 7.72656 8.27344C7.72656 11.1812 10.0922 13.5469 13 13.5469C15.9078 13.5469 18.2734 11.1812 18.2734 8.27344C18.2734 5.36566 15.9078 3 13 3Z" fill="#21E786"/>
<path d="M19.5612 16.992C18.1174 15.5261 16.2035 14.7188 14.1719 14.7188H11.8281C9.79656 14.7188 7.88258 15.5261 6.43883 16.992C5.00215 18.4507 4.21094 20.3763 4.21094 22.4141C4.21094 22.7377 4.47328 23 4.79688 23H21.2031C21.5267 23 21.7891 22.7377 21.7891 22.4141C21.7891 20.3763 20.9979 18.4507 19.5612 16.992Z" fill="#21E786"/>
</svg>
