<svg width="48" height="48" viewBox="0 0 48 48" fill="none" xmlns="http://www.w3.org/2000/svg">
<rect width="48" height="48" rx="24" fill="#141B22"/>
<path d="M24.3498 17.626C23.0887 17.6257 21.8558 17.9995 20.8071 18.7C19.7583 19.4005 18.9409 20.3962 18.4581 21.5613C17.9753 22.7263 17.8489 24.0084 18.0948 25.2453C18.3407 26.4823 18.9478 27.6185 19.8395 28.5104C20.7312 29.4022 21.8673 30.0096 23.1042 30.2557C24.3411 30.5019 25.6232 30.3757 26.7883 29.8931C27.9535 29.4106 28.9494 28.5933 29.6501 27.5448C30.3508 26.4962 30.7248 25.2634 30.7248 24.0023C30.723 22.3119 30.0509 20.6913 28.8557 19.4959C27.6606 18.3006 26.0401 17.6281 24.3498 17.626Z" fill="#21E786"/>
<path d="M34.485 22.877H32.9863C32.6879 22.877 32.4017 22.9955 32.1906 23.2065C31.9796 23.4175 31.8611 23.7037 31.8611 24.0021C31.8611 24.3006 31.9796 24.5868 32.1906 24.7978C32.4017 25.0088 32.6879 25.1273 32.9863 25.1273H34.485C34.7834 25.1273 35.0696 25.0088 35.2806 24.7978C35.4916 24.5868 35.6102 24.3006 35.6102 24.0021C35.6102 23.7037 35.4916 23.4175 35.2806 23.2065C35.0696 22.9955 34.7834 22.877 34.485 22.877Z" fill="#21E786"/>
<path d="M24.3498 31.5C24.0516 31.5004 23.7657 31.6192 23.5549 31.8301C23.3441 32.041 23.2256 32.327 23.2253 32.6252V34.1254C23.2253 34.4236 23.3438 34.7095 23.5547 34.9204C23.7655 35.1313 24.0515 35.2497 24.3497 35.2497C24.6479 35.2497 24.9339 35.1313 25.1447 34.9204C25.3556 34.7095 25.4741 34.4236 25.4741 34.1254V32.6252C25.4738 32.327 25.3554 32.0411 25.1446 31.8301C24.9338 31.6192 24.648 31.5005 24.3498 31.5Z" fill="#21E786"/>
<path d="M16.8568 24.0021C16.8566 23.7039 16.738 23.418 16.5272 23.2071C16.3164 22.9961 16.0306 22.8774 15.7324 22.877H14.2338C13.9354 22.877 13.6492 22.9955 13.4382 23.2065C13.2272 23.4175 13.1086 23.7037 13.1086 24.0021C13.1086 24.3006 13.2272 24.5868 13.4382 24.7978C13.6492 25.0088 13.9354 25.1273 14.2338 25.1273H15.7324C16.0306 25.1269 16.3164 25.0082 16.5272 24.7972C16.738 24.5863 16.8566 24.3003 16.8568 24.0021Z" fill="#21E786"/>
<path d="M24.3499 16.5007C24.6481 16.5002 24.9339 16.3815 25.1447 16.1706C25.3555 15.9597 25.474 15.6737 25.4743 15.3755V13.8753C25.4743 13.5771 25.3558 13.2912 25.145 13.0803C24.9341 12.8694 24.6481 12.751 24.3499 12.751C24.0517 12.751 23.7658 12.8694 23.5549 13.0803C23.344 13.2912 23.2256 13.5771 23.2256 13.8753V15.3755C23.2258 15.6737 23.3443 15.9596 23.5551 16.1706C23.7658 16.3815 24.0517 16.5002 24.3499 16.5007Z" fill="#21E786"/>
<path d="M31.2449 18.6976L32.3057 17.6368C32.4105 17.5325 32.4936 17.4085 32.5504 17.272C32.6072 17.1355 32.6365 16.9891 32.6366 16.8413C32.6368 16.6935 32.6077 16.547 32.5512 16.4104C32.4947 16.2738 32.4118 16.1497 32.3073 16.0451C32.2028 15.9406 32.0786 15.8577 31.942 15.8012C31.8054 15.7447 31.659 15.7157 31.5112 15.7158C31.3633 15.716 31.217 15.7453 31.0805 15.802C30.944 15.8588 30.82 15.942 30.7157 16.0467L29.6549 17.1075C29.5501 17.2118 29.467 17.3358 29.4102 17.4723C29.3534 17.6088 29.3241 17.7552 29.324 17.903C29.3238 18.0508 29.3528 18.1973 29.4094 18.3339C29.4659 18.4705 29.5488 18.5946 29.6533 18.6991C29.7578 18.8037 29.882 18.8866 30.0186 18.9431C30.1552 18.9996 30.3016 19.0286 30.4494 19.0285C30.5973 19.0283 30.7436 18.999 30.8801 18.9422C31.0166 18.8854 31.1406 18.8023 31.2449 18.6976Z" fill="#21E786"/>
<path d="M31.245 29.3073C31.1407 29.2026 31.0167 29.1195 30.8802 29.0627C30.7437 29.006 30.5974 28.9767 30.4496 28.9766C30.3017 28.9764 30.1554 29.0055 30.0188 29.062C29.8822 29.1185 29.7581 29.2014 29.6535 29.3059C29.549 29.4104 29.4661 29.5345 29.4096 29.6711C29.3531 29.8077 29.3241 29.9541 29.3242 30.1019C29.3243 30.2497 29.3536 30.3961 29.4104 30.5326C29.4671 30.6691 29.5502 30.793 29.6549 30.8974L30.7157 31.9581C30.8201 32.0628 30.944 32.146 31.0805 32.2027C31.217 32.2594 31.3634 32.2887 31.5112 32.2889C31.659 32.289 31.8054 32.26 31.942 32.2035C32.0786 32.1469 32.2027 32.0641 32.3072 31.9595C32.4117 31.855 32.4946 31.7309 32.5511 31.5943C32.6076 31.4577 32.6367 31.3113 32.6365 31.1635C32.6364 31.0157 32.6071 30.8693 32.5504 30.7329C32.4936 30.5964 32.4105 30.4724 32.3058 30.3681L31.245 29.3073Z" fill="#21E786"/>
<path d="M17.4546 29.3073L16.3938 30.3681C16.289 30.4724 16.2058 30.5964 16.149 30.7329C16.0922 30.8694 16.0629 31.0158 16.0627 31.1636C16.0626 31.3115 16.0916 31.4579 16.1481 31.5945C16.2046 31.7312 16.2875 31.8553 16.3921 31.9599C16.4966 32.0644 16.6208 32.1473 16.7574 32.2038C16.894 32.2603 17.0405 32.2893 17.1883 32.2892C17.3362 32.289 17.4825 32.2597 17.619 32.2029C17.7556 32.1461 17.8795 32.0629 17.9838 31.9581L19.0446 30.8974C19.1494 30.793 19.2325 30.6691 19.2892 30.5326C19.346 30.3961 19.3752 30.2497 19.3754 30.1019C19.3755 29.9541 19.3465 29.8077 19.29 29.6711C19.2335 29.5345 19.1506 29.4104 19.046 29.3059C18.9415 29.2014 18.8174 29.1185 18.6808 29.062C18.5442 29.0055 18.3978 28.9764 18.25 28.9766C18.1022 28.9767 17.9558 29.006 17.8194 29.0627C17.6829 29.1195 17.5589 29.2026 17.4546 29.3073Z" fill="#21E786"/>
<path d="M17.4548 18.6973C17.5592 18.8018 17.6832 18.8848 17.8196 18.9414C17.9561 18.998 18.1023 19.0272 18.2501 19.0273C18.3978 19.0273 18.5441 18.9983 18.6806 18.9418C18.8171 18.8853 18.9411 18.8024 19.0456 18.6979C19.1501 18.5935 19.2329 18.4695 19.2894 18.333C19.3459 18.1965 19.375 18.0502 19.3749 17.9024C19.3749 17.7547 19.3457 17.6084 19.2891 17.472C19.2324 17.3355 19.1495 17.2116 19.0449 17.1072L17.9841 16.0464C17.8798 15.9415 17.7558 15.8582 17.6193 15.8013C17.4828 15.7444 17.3363 15.7151 17.1884 15.7148C17.0405 15.7146 16.894 15.7436 16.7573 15.8001C16.6206 15.8566 16.4964 15.9396 16.3918 16.0442C16.2872 16.1488 16.2043 16.273 16.1478 16.4097C16.0913 16.5464 16.0623 16.6929 16.0625 16.8408C16.0627 16.9887 16.0921 17.1351 16.149 17.2717C16.2059 17.4082 16.2892 17.5322 16.394 17.6365L17.4548 18.6973Z" fill="#21E786"/>
</svg>
