<svg width="23" height="24" viewBox="0 0 23 24" fill="none" xmlns="http://www.w3.org/2000/svg">
<path d="M11.3498 5.62598C10.0887 5.62574 8.85577 5.9995 7.80706 6.69997C6.75834 7.40045 5.94091 8.39619 5.45812 9.56126C4.97534 10.7263 4.8489 12.0084 5.09478 13.2453C5.34066 14.4823 5.94783 15.6185 6.8395 16.5104C7.73117 17.4022 8.86729 18.0096 10.1042 18.2557C11.3411 18.5019 12.6232 18.3757 13.7883 17.8931C14.9535 17.4106 15.9494 16.5933 16.6501 15.5448C17.3508 14.4962 17.7248 13.2634 17.7248 12.0023C17.723 10.3119 17.0509 8.6913 15.8557 7.49593C14.6606 6.30056 13.0401 5.62806 11.3498 5.62598Z" fill="#21E786"/>
<path d="M21.485 10.877H19.9863C19.6879 10.877 19.4017 10.9955 19.1906 11.2065C18.9796 11.4175 18.8611 11.7037 18.8611 12.0021C18.8611 12.3006 18.9796 12.5868 19.1906 12.7978C19.4017 13.0088 19.6879 13.1273 19.9863 13.1273H21.485C21.7834 13.1273 22.0696 13.0088 22.2806 12.7978C22.4916 12.5868 22.6102 12.3006 22.6102 12.0021C22.6102 11.7037 22.4916 11.4175 22.2806 11.2065C22.0696 10.9955 21.7834 10.877 21.485 10.877Z" fill="#21E786"/>
<path d="M11.3498 19.5C11.0516 19.5004 10.7657 19.6192 10.5549 19.8301C10.3441 20.041 10.2256 20.327 10.2253 20.6252V22.1254C10.2253 22.4236 10.3438 22.7095 10.5547 22.9204C10.7655 23.1313 11.0515 23.2497 11.3497 23.2497C11.6479 23.2497 11.9339 23.1313 12.1447 22.9204C12.3556 22.7095 12.4741 22.4236 12.4741 22.1254V20.6252C12.4738 20.327 12.3554 20.0411 12.1446 19.8301C11.9338 19.6192 11.648 19.5005 11.3498 19.5Z" fill="#21E786"/>
<path d="M3.85681 12.0021C3.85656 11.7039 3.73803 11.418 3.52723 11.2071C3.31643 10.9961 3.03057 10.8774 2.73236 10.877H1.23383C0.935412 10.877 0.649216 10.9955 0.438202 11.2065C0.227189 11.4175 0.108643 11.7037 0.108643 12.0021C0.108643 12.3006 0.227189 12.5868 0.438202 12.7978C0.649216 13.0088 0.935412 13.1273 1.23383 13.1273H2.73236C3.03058 13.1269 3.31643 13.0082 3.52723 12.7972C3.73803 12.5863 3.85656 12.3003 3.85681 12.0021Z" fill="#21E786"/>
<path d="M11.3499 4.5007C11.6481 4.50025 11.9339 4.38154 12.1447 4.1706C12.3555 3.95967 12.474 3.67374 12.4743 3.37553V1.87534C12.4743 1.57714 12.3558 1.29115 12.145 1.08029C11.9341 0.869435 11.6481 0.750977 11.3499 0.750977C11.0517 0.750977 10.7658 0.869435 10.5549 1.08029C10.344 1.29115 10.2256 1.57714 10.2256 1.87534V3.37553C10.2258 3.67372 10.3443 3.95965 10.5551 4.17058C10.7658 4.38152 11.0517 4.50024 11.3499 4.5007Z" fill="#21E786"/>
<path d="M18.2449 6.69756L19.3057 5.63679C19.4105 5.53245 19.4936 5.40849 19.5504 5.27199C19.6072 5.13549 19.6365 4.98913 19.6366 4.84129C19.6368 4.69345 19.6077 4.54704 19.5512 4.41042C19.4947 4.27381 19.4118 4.14968 19.3073 4.04514C19.2028 3.9406 19.0786 3.85771 18.942 3.8012C18.8054 3.74469 18.659 3.71568 18.5112 3.71582C18.3633 3.71597 18.217 3.74526 18.0805 3.80204C17.944 3.85882 17.82 3.94196 17.7157 4.0467L16.6549 5.1075C16.5501 5.21183 16.467 5.3358 16.4102 5.4723C16.3534 5.6088 16.3241 5.75516 16.324 5.903C16.3238 6.05084 16.3528 6.19725 16.4094 6.33387C16.4659 6.47048 16.5488 6.59461 16.6533 6.69914C16.7578 6.80368 16.882 6.88657 17.0186 6.94308C17.1552 6.99959 17.3016 7.0286 17.4494 7.02845C17.5973 7.02831 17.7436 6.99901 17.8801 6.94223C18.0166 6.88545 18.1406 6.80231 18.2449 6.69756Z" fill="#21E786"/>
<path d="M18.245 17.3073C18.1407 17.2026 18.0167 17.1195 17.8802 17.0627C17.7437 17.006 17.5974 16.9767 17.4496 16.9766C17.3017 16.9764 17.1554 17.0055 17.0188 17.062C16.8822 17.1185 16.7581 17.2014 16.6535 17.3059C16.549 17.4104 16.4661 17.5345 16.4096 17.6711C16.3531 17.8077 16.3241 17.9541 16.3242 18.1019C16.3243 18.2497 16.3536 18.3961 16.4104 18.5326C16.4671 18.6691 16.5502 18.793 16.6549 18.8974L17.7157 19.9581C17.8201 20.0628 17.944 20.146 18.0805 20.2027C18.217 20.2594 18.3634 20.2887 18.5112 20.2889C18.659 20.289 18.8054 20.26 18.942 20.2035C19.0786 20.1469 19.2027 20.0641 19.3072 19.9595C19.4117 19.855 19.4946 19.7309 19.5511 19.5943C19.6076 19.4577 19.6367 19.3113 19.6365 19.1635C19.6364 19.0157 19.6071 18.8693 19.5504 18.7329C19.4936 18.5964 19.4105 18.4724 19.3058 18.3681L18.245 17.3073Z" fill="#21E786"/>
<path d="M4.45456 17.3073L3.39378 18.3681C3.28901 18.4724 3.20583 18.5964 3.14903 18.7329C3.09223 18.8694 3.06291 19.0158 3.06274 19.1636C3.06258 19.3115 3.09159 19.4579 3.1481 19.5945C3.20461 19.7312 3.28751 19.8553 3.39206 19.9599C3.49661 20.0644 3.62075 20.1473 3.75739 20.2038C3.89402 20.2603 4.04045 20.2893 4.18831 20.2892C4.33617 20.289 4.48254 20.2597 4.61905 20.2029C4.75556 20.1461 4.87952 20.0629 4.98385 19.9581L6.04465 18.8974C6.14935 18.793 6.23246 18.6691 6.28921 18.5326C6.34595 18.3961 6.37523 18.2497 6.37536 18.1019C6.37549 17.9541 6.34647 17.8077 6.28996 17.6711C6.23345 17.5345 6.15057 17.4104 6.04604 17.3059C5.94152 17.2014 5.81741 17.1185 5.68082 17.062C5.54422 17.0055 5.39783 16.9764 5.25001 16.9766C5.10219 16.9767 4.95585 17.006 4.81936 17.0627C4.68286 17.1195 4.5589 17.2026 4.45456 17.3073Z" fill="#21E786"/>
<path d="M4.45483 6.69727C4.55921 6.80182 4.68316 6.88478 4.81962 6.9414C4.95607 6.99802 5.10234 7.0272 5.25008 7.02726C5.39781 7.02732 5.54411 6.99827 5.68061 6.94177C5.81711 6.88526 5.94113 6.80241 6.0456 6.69794C6.15006 6.59348 6.23291 6.46945 6.28942 6.33295C6.34592 6.19645 6.37498 6.05016 6.37491 5.90242C6.37485 5.75469 6.34567 5.60842 6.28905 5.47196C6.23243 5.33551 6.14947 5.21156 6.04492 5.10718L4.98412 4.04638C4.87982 3.9415 4.75585 3.85822 4.61931 3.80133C4.48277 3.74444 4.33634 3.71505 4.18843 3.71484C4.04051 3.71464 3.89401 3.74362 3.75731 3.80013C3.62061 3.85664 3.49641 3.93957 3.39181 4.04417C3.28722 4.14876 3.20429 4.27296 3.14778 4.40966C3.09128 4.54636 3.06229 4.69286 3.0625 4.84078C3.06271 4.9887 3.0921 5.13512 3.14899 5.27166C3.20588 5.4082 3.28916 5.53217 3.39404 5.63647L4.45483 6.69727Z" fill="#21E786"/>
</svg>
