<svg width="20" height="12" viewBox="0 0 20 12" fill="none" xmlns="http://www.w3.org/2000/svg">
<path d="M19.7105 5.31498L19.7097 5.31406L14.5532 0.281803C14.1669 -0.0951806 13.5421 -0.0937777 13.1576 0.285093C12.7731 0.663916 12.7746 1.27664 13.1609 1.65367L16.6229 5.03226H0.986841C0.441809 5.03226 0 5.46552 0 6C0 6.53448 0.441809 6.96774 0.986841 6.96774H16.6229L13.1609 10.3463C12.7746 10.7234 12.7731 11.3361 13.1576 11.7149C13.5421 12.0938 14.167 12.0951 14.5533 11.7182L19.7097 6.68594L19.7106 6.68502C20.0971 6.30673 20.0959 5.69202 19.7105 5.31498Z" fill="white"/>
</svg>
